<svg width="1024" height="377" viewBox="0 0 1024 377" fill="none" xmlns="http://www.w3.org/2000/svg">
<g filter="url(#filter0_d_84_3)">
<mask id="path-1-outside-1_84_3" maskUnits="userSpaceOnUse" x="826" y="115" width="194" height="195" fill="black">
<rect fill="white" x="826" y="115" width="194" height="195"/>
<path d="M914.2 291.4C894 291.4 877.2 283.8 863.8 268.6C850.6 253.2 844 234.5 844 212.5V160C844 155.2 844.1 151.7 844.3 149.5C844.7 147.3 845.6 144.7 847 141.7C849.8 136.3 857.6 133.6 870.4 133.6C884.4 133.6 892.6 137.4 895 145C896.2 148.2 896.8 153.3 896.8 160.3V212.8C896.8 221 899.1 227.4 903.7 232C908.5 236.6 914.8 238.9 922.6 238.9C930.6 238.9 937 236.5 941.8 231.7C946.8 226.9 949.3 220.6 949.3 212.8V159.7C949.3 155.1 949.4 151.7 949.6 149.5C950 147.1 951 144.4 952.6 141.4C955.2 136.2 962.9 133.6 975.7 133.6C988.3 133.6 996 136.3 998.8 141.7C1000.2 144.7 1001 147.4 1001.2 149.8C1001.6 152 1001.8 155.4 1001.8 160V266.2C1001.8 270.6 1001.6 274 1001.2 276.4C1001 278.6 1000.1 281.1 998.5 283.9C995.5 289.1 987.8 291.7 975.4 291.7C963.2 291.7 955.7 289.3 952.9 284.5C950.9 281.1 949.9 277 949.9 272.2C949.1 273.6 947.3 275.6 944.5 278.2C941.7 280.8 939 283 936.4 284.8C929.6 289.2 922.2 291.4 914.2 291.4Z"/>
</mask>
<path d="M914.2 291.4C894 291.4 877.2 283.8 863.8 268.6C850.6 253.2 844 234.5 844 212.5V160C844 155.2 844.1 151.7 844.3 149.5C844.7 147.3 845.6 144.7 847 141.7C849.8 136.3 857.6 133.6 870.4 133.6C884.4 133.6 892.6 137.4 895 145C896.2 148.2 896.8 153.3 896.8 160.3V212.8C896.8 221 899.1 227.4 903.7 232C908.5 236.6 914.8 238.9 922.6 238.9C930.6 238.9 937 236.5 941.8 231.7C946.8 226.9 949.3 220.6 949.3 212.8V159.7C949.3 155.1 949.4 151.7 949.6 149.5C950 147.1 951 144.4 952.6 141.4C955.2 136.2 962.9 133.6 975.7 133.6C988.3 133.6 996 136.3 998.8 141.7C1000.2 144.7 1001 147.4 1001.2 149.8C1001.6 152 1001.8 155.4 1001.8 160V266.2C1001.8 270.6 1001.6 274 1001.2 276.4C1001 278.6 1000.1 281.1 998.5 283.9C995.5 289.1 987.8 291.7 975.4 291.7C963.2 291.7 955.7 289.3 952.9 284.5C950.9 281.1 949.9 277 949.9 272.2C949.1 273.6 947.3 275.6 944.5 278.2C941.7 280.8 939 283 936.4 284.8C929.6 289.2 922.2 291.4 914.2 291.4Z" fill="#EFADFF"/>
<path d="M863.8 268.6L850.133 280.314L850.215 280.409L850.298 280.503L863.8 268.6ZM844.3 149.5L826.59 146.28L826.447 147.07L826.374 147.87L844.3 149.5ZM847 141.7L831.02 133.414L830.848 133.748L830.689 134.088L847 141.7ZM895 145L877.836 150.42L877.979 150.874L878.146 151.32L895 145ZM903.7 232L890.972 244.728L891.107 244.863L891.246 244.996L903.7 232ZM941.8 231.7L929.334 218.715L929.202 218.842L929.072 218.972L941.8 231.7ZM949.6 149.5L931.845 146.541L931.735 147.202L931.674 147.87L949.6 149.5ZM952.6 141.4L968.482 149.871L968.594 149.662L968.7 149.45L952.6 141.4ZM998.8 141.7L1015.11 134.088L1014.95 133.748L1014.78 133.414L998.8 141.7ZM1001.2 149.8L983.262 151.295L983.335 152.163L983.49 153.02L1001.2 149.8ZM1001.2 276.4L983.445 273.441L983.335 274.102L983.274 274.77L1001.2 276.4ZM998.5 283.9L1014.09 292.895L1014.11 292.863L1014.13 292.831L998.5 283.9ZM952.9 284.5L968.448 275.43L968.431 275.402L968.415 275.374L952.9 284.5ZM949.9 272.2H967.9V204.42L934.272 263.27L949.9 272.2ZM944.5 278.2L932.252 265.01H932.252L944.5 278.2ZM936.4 284.8L946.179 299.912L946.415 299.76L946.646 299.599L936.4 284.8ZM914.2 291.4V273.4C899.186 273.4 887.298 268.035 877.302 256.697L863.8 268.6L850.298 280.503C867.102 299.565 888.814 309.4 914.2 309.4V291.4ZM863.8 268.6L877.467 256.886C867.308 245.034 862 230.595 862 212.5H844H826C826 238.405 833.892 261.366 850.133 280.314L863.8 268.6ZM844 212.5H862V160H844H826V212.5H844ZM844 160H862C862 155.267 862.105 152.461 862.226 151.13L844.3 149.5L826.374 147.87C826.095 150.939 826 155.133 826 160H844ZM844.3 149.5L862.01 152.72C862.009 152.721 862.024 152.644 862.068 152.48C862.112 152.318 862.181 152.089 862.285 151.788C862.496 151.178 862.823 150.358 863.311 149.312L847 141.7L830.689 134.088C828.917 137.885 827.364 142.025 826.59 146.28L844.3 149.5ZM847 141.7L862.98 149.986C861.594 152.658 859.711 153.025 860.838 152.635C862.1 152.198 865.026 151.6 870.4 151.6V133.6V115.6C862.974 115.6 855.6 116.352 849.062 118.615C842.389 120.925 835.206 125.342 831.02 133.414L847 141.7ZM870.4 133.6V151.6C876.077 151.6 878.697 152.418 879.482 152.782C879.751 152.906 879.43 152.806 878.93 152.269C878.393 151.691 878.02 151.003 877.836 150.42L895 145L912.164 139.58C905.873 119.656 885.588 115.6 870.4 115.6V133.6ZM895 145L878.146 151.32C878.05 151.064 878.267 151.576 878.473 153.328C878.668 154.982 878.8 157.27 878.8 160.3H896.8H914.8C914.8 152.92 914.253 145.078 911.854 138.68L895 145ZM896.8 160.3H878.8V212.8H896.8H914.8V160.3H896.8ZM896.8 212.8H878.8C878.8 224.464 882.171 235.927 890.972 244.728L903.7 232L916.428 219.272C916.029 218.873 914.8 217.536 914.8 212.8H896.8ZM903.7 232L891.246 244.996C899.971 253.357 911.02 256.9 922.6 256.9V238.9V220.9C918.58 220.9 917.029 219.843 916.154 219.004L903.7 232ZM922.6 238.9V256.9C934.457 256.9 945.755 253.201 954.528 244.428L941.8 231.7L929.072 218.972C928.245 219.799 926.743 220.9 922.6 220.9V238.9ZM941.8 231.7L954.266 244.685C963.26 236.05 967.3 224.826 967.3 212.8H949.3H931.3C931.3 216.374 930.34 217.75 929.334 218.715L941.8 231.7ZM949.3 212.8H967.3V159.7H949.3H931.3V212.8H949.3ZM949.3 159.7H967.3C967.3 155.194 967.404 152.474 967.526 151.13L949.6 149.5L931.674 147.87C931.396 150.926 931.3 155.006 931.3 159.7H949.3ZM949.6 149.5L967.355 152.459C967.338 152.564 967.355 152.397 967.529 151.927C967.703 151.459 967.998 150.778 968.482 149.871L952.6 141.4L936.718 132.929C934.535 137.022 932.666 141.617 931.845 146.541L949.6 149.5ZM952.6 141.4L968.7 149.45C967.15 152.55 964.917 152.998 966.083 152.604C967.328 152.184 970.267 151.6 975.7 151.6V133.6V115.6C968.333 115.6 961.022 116.316 954.567 118.496C948.033 120.702 940.65 125.05 936.5 133.35L952.6 141.4ZM975.7 133.6V151.6C980.952 151.6 983.78 152.194 984.969 152.611C986.001 152.973 984.168 152.584 982.82 149.986L998.8 141.7L1014.78 133.414C1010.63 125.416 1003.55 120.977 996.881 118.639C990.37 116.356 983.048 115.6 975.7 115.6V133.6ZM998.8 141.7L982.489 149.312C982.875 150.14 983.084 150.727 983.192 151.089C983.299 151.452 983.28 151.506 983.262 151.295L1001.2 149.8L1019.14 148.305C1018.71 143.156 1017.1 138.344 1015.11 134.088L998.8 141.7ZM1001.2 149.8L983.49 153.02C983.586 153.546 983.8 155.599 983.8 160H1001.8H1019.8C1019.8 155.201 1019.61 150.454 1018.91 146.58L1001.2 149.8ZM1001.8 160H983.8V266.2H1001.8H1019.8V160H1001.8ZM1001.8 266.2H983.8C983.8 270.265 983.601 272.503 983.445 273.441L1001.2 276.4L1018.96 279.359C1019.6 275.497 1019.8 270.935 1019.8 266.2H1001.8ZM1001.2 276.4L983.274 274.77C983.306 274.416 983.357 274.157 983.392 274.004C983.428 273.852 983.452 273.792 983.439 273.828C983.426 273.864 983.382 273.979 983.289 274.177C983.196 274.374 983.061 274.638 982.872 274.969L998.5 283.9L1014.13 292.831C1016.47 288.737 1018.61 283.701 1019.13 278.03L1001.2 276.4ZM998.5 283.9L982.909 274.905C984.268 272.548 985.898 272.297 984.717 272.696C983.427 273.131 980.56 273.7 975.4 273.7V291.7V309.7C982.641 309.7 989.823 308.969 996.234 306.804C1002.75 304.603 1009.73 300.452 1014.09 292.895L998.5 283.9ZM975.4 291.7V273.7C970.257 273.7 967.394 273.167 966.111 272.756C964.84 272.35 966.825 272.647 968.448 275.43L952.9 284.5L937.352 293.57C941.776 301.153 948.91 305.05 955.139 307.044C961.356 309.033 968.343 309.7 975.4 309.7V291.7ZM952.9 284.5L968.415 275.374C968.361 275.283 967.9 274.485 967.9 272.2H949.9H931.9C931.9 279.515 933.439 286.917 937.385 293.626L952.9 284.5ZM949.9 272.2L934.272 263.27C934.574 262.74 934.799 262.448 934.814 262.428C934.843 262.39 934.777 262.479 934.571 262.709C934.145 263.182 933.407 263.937 932.252 265.01L944.5 278.2L956.748 291.39C959.557 288.782 963.229 285.155 965.528 281.13L949.9 272.2ZM944.5 278.2L932.252 265.01C929.956 267.142 927.922 268.777 926.154 270.001L936.4 284.8L946.646 299.599C950.078 297.223 953.444 294.458 956.748 291.39L944.5 278.2ZM936.4 284.8L926.621 269.688C922.696 272.228 918.685 273.4 914.2 273.4V291.4V309.4C925.715 309.4 936.504 306.172 946.179 299.912L936.4 284.8Z" fill="white" mask="url(#path-1-outside-1_84_3)"/>
</g>
<g filter="url(#filter1_d_84_3)">
<mask id="path-3-outside-2_84_3" maskUnits="userSpaceOnUse" x="651" y="112" width="169" height="201" fill="black">
<rect fill="white" x="651" y="112" width="169" height="201"/>
<path d="M675.2 277.9C671.4 275.5 669.5 271.7 669.5 266.5C669.5 261.3 673.3 253.4 680.9 242.8C683.1 239.4 686.6 237.7 691.4 237.7C696.4 237.7 703.1 240.2 711.5 245.2C719.9 250 727.5 252.4 734.3 252.4C746.5 252.4 752.6 250 752.6 245.2C752.6 241.4 745.9 238.6 732.5 236.8C719.9 235 707.4 230.3 695 222.7C689.2 219.1 684.4 213.5 680.6 205.9C676.8 198.1 674.9 188.9 674.9 178.3C674.9 146.7 696.6 130.9 740 130.9C754.2 130.9 768.8 134.3 783.8 141.1C790.8 144.3 794.3 148.3 794.3 153.1C794.3 157.9 792.1 163.8 787.7 170.8C783.3 177.8 778.8 181.3 774.2 181.3C771.8 181.3 767.3 179.8 760.7 176.8C754.3 173.8 747.3 172.3 739.7 172.3C727.9 172.3 722 174.5 722 178.9C722 184.9 728.8 188.8 742.4 190.6C755.6 192 768.4 195.8 780.8 202C786.6 204.8 791.4 209.7 795.2 216.7C799.2 223.5 801.2 232.1 801.2 242.5C801.2 252.9 799.2 261.8 795.2 269.2C791.4 276.4 786 281.8 779 285.4C766.2 291.6 750.1 294.7 730.7 294.7C711.5 294.7 693 289.1 675.2 277.9Z"/>
</mask>
<path d="M675.2 277.9C671.4 275.5 669.5 271.7 669.5 266.5C669.5 261.3 673.3 253.4 680.9 242.8C683.1 239.4 686.6 237.7 691.4 237.7C696.4 237.7 703.1 240.2 711.5 245.2C719.9 250 727.5 252.4 734.3 252.4C746.5 252.4 752.6 250 752.6 245.2C752.6 241.4 745.9 238.6 732.5 236.8C719.9 235 707.4 230.3 695 222.7C689.2 219.1 684.4 213.5 680.6 205.9C676.8 198.1 674.9 188.9 674.9 178.3C674.9 146.7 696.6 130.9 740 130.9C754.2 130.9 768.8 134.3 783.8 141.1C790.8 144.3 794.3 148.3 794.3 153.1C794.3 157.9 792.1 163.8 787.7 170.8C783.3 177.8 778.8 181.3 774.2 181.3C771.8 181.3 767.3 179.8 760.7 176.8C754.3 173.8 747.3 172.3 739.7 172.3C727.9 172.3 722 174.5 722 178.9C722 184.9 728.8 188.8 742.4 190.6C755.6 192 768.4 195.8 780.8 202C786.6 204.8 791.4 209.7 795.2 216.7C799.2 223.5 801.2 232.1 801.2 242.5C801.2 252.9 799.2 261.8 795.2 269.2C791.4 276.4 786 281.8 779 285.4C766.2 291.6 750.1 294.7 730.7 294.7C711.5 294.7 693 289.1 675.2 277.9Z" fill="#F4442B"/>
<path d="M675.2 277.9L665.588 293.119L665.601 293.127L665.614 293.135L675.2 277.9ZM680.9 242.8L695.529 253.288L695.779 252.939L696.012 252.579L680.9 242.8ZM711.5 245.2L702.293 260.667L702.431 260.749L702.569 260.828L711.5 245.2ZM732.5 236.8L729.954 254.619L730.029 254.63L730.104 254.64L732.5 236.8ZM695 222.7L685.507 237.994L685.551 238.02L685.594 238.047L695 222.7ZM680.6 205.9L664.418 213.783L664.459 213.867L664.5 213.95L680.6 205.9ZM783.8 141.1L791.284 124.729L791.258 124.718L791.232 124.706L783.8 141.1ZM787.7 170.8L802.939 180.379V180.379L787.7 170.8ZM760.7 176.8L753.06 193.098L753.156 193.143L753.252 193.187L760.7 176.8ZM742.4 190.6L740.038 208.444L740.27 208.475L740.502 208.5L742.4 190.6ZM780.8 202L772.75 218.1L772.862 218.156L772.975 218.21L780.8 202ZM795.2 216.7L779.381 225.288L779.528 225.56L779.685 225.826L795.2 216.7ZM795.2 269.2L779.365 260.641L779.323 260.719L779.281 260.798L795.2 269.2ZM779 285.4L786.847 301.6L787.041 301.506L787.232 301.407L779 285.4ZM675.2 277.9L684.812 262.681C685.52 263.129 686.42 263.991 687.025 265.2C687.573 266.297 687.5 266.921 687.5 266.5H669.5H651.5C651.5 276.738 655.671 286.856 665.588 293.119L675.2 277.9ZM669.5 266.5H687.5C687.5 267.85 687.143 267.447 688.571 264.478C689.858 261.801 692.073 258.108 695.529 253.288L680.9 242.8L666.271 232.312C662.127 238.092 658.642 243.649 656.129 248.872C653.757 253.803 651.5 259.95 651.5 266.5H669.5ZM680.9 242.8L696.012 252.579C695.403 253.52 694.369 254.52 693.039 255.166C691.834 255.752 691.101 255.7 691.4 255.7V237.7V219.7C681.806 219.7 671.96 223.483 665.788 233.021L680.9 242.8ZM691.4 237.7V255.7C691.042 255.7 691.751 255.644 693.882 256.439C695.93 257.203 698.709 258.534 702.293 260.667L711.5 245.2L720.707 229.733C711.722 224.384 701.49 219.7 691.4 219.7V237.7ZM711.5 245.2L702.569 260.828C712.604 266.562 723.318 270.4 734.3 270.4V252.4V234.4C731.682 234.4 727.196 233.437 720.431 229.572L711.5 245.2ZM734.3 252.4V270.4C741.054 270.4 748.366 269.809 754.615 267.35C757.887 266.063 761.903 263.865 765.19 259.986C768.759 255.773 770.6 250.58 770.6 245.2H752.6H734.6C734.6 242.22 735.679 239.127 737.723 236.714C739.484 234.635 741.213 233.937 741.435 233.85C741.705 233.744 741.338 233.923 739.966 234.103C738.655 234.275 736.8 234.4 734.3 234.4V252.4ZM752.6 245.2H770.6C770.6 238.336 767.381 233.069 763.976 229.714C760.857 226.643 757.28 224.797 754.516 223.642C748.958 221.319 742.063 219.923 734.896 218.96L732.5 236.8L730.104 254.64C733.066 255.038 735.435 255.462 737.278 255.884C739.17 256.317 740.207 256.68 740.634 256.858C741.22 257.103 740.155 256.782 738.712 255.361C737.913 254.573 736.86 253.312 736.007 251.503C735.122 249.626 734.6 247.47 734.6 245.2H752.6ZM732.5 236.8L735.046 218.981C725.2 217.574 715.009 213.852 704.406 207.353L695 222.7L685.594 238.047C699.791 246.748 714.6 252.426 729.954 254.619L732.5 236.8ZM695 222.7L704.493 207.406C702.141 205.947 699.373 203.196 696.7 197.85L680.6 205.9L664.5 213.95C669.427 223.804 676.259 232.253 685.507 237.994L695 222.7ZM680.6 205.9L696.782 198.017C694.414 193.156 692.9 186.763 692.9 178.3H674.9H656.9C656.9 191.037 659.186 203.044 664.418 213.783L680.6 205.9ZM674.9 178.3H692.9C692.9 167.096 696.437 161.184 701.77 157.301C708.165 152.645 719.95 148.9 740 148.9V130.9V112.9C716.65 112.9 695.885 117.055 680.58 128.199C664.213 140.116 656.9 157.904 656.9 178.3H674.9ZM740 130.9V148.9C751.259 148.9 763.332 151.584 776.368 157.494L783.8 141.1L791.232 124.706C774.268 117.016 757.141 112.9 740 112.9V130.9ZM783.8 141.1L776.316 157.471C777.313 157.926 777.91 158.286 778.214 158.495C778.52 158.705 778.419 158.685 778.129 158.353C777.819 158 777.324 157.322 776.918 156.302C776.502 155.256 776.3 154.146 776.3 153.1H794.3H812.3C812.3 137.538 800.429 128.91 791.284 124.729L783.8 141.1ZM794.3 153.1H776.3C776.3 152.8 776.355 153.305 775.784 154.836C775.222 156.345 774.198 158.457 772.461 161.221L787.7 170.8L802.939 180.379C807.995 172.336 812.3 162.941 812.3 153.1H794.3ZM787.7 170.8L772.461 161.221C771.727 162.388 771.115 163.206 770.65 163.755C770.181 164.309 769.943 164.491 769.974 164.467C770.013 164.436 770.407 164.137 771.17 163.844C771.97 163.536 773.011 163.3 774.2 163.3V181.3V199.3C788.652 199.3 797.837 188.496 802.939 180.379L787.7 170.8ZM774.2 181.3V163.3C775.333 163.3 775.965 163.459 775.83 163.43C775.771 163.417 775.422 163.334 774.717 163.099C773.288 162.622 771.141 161.773 768.148 160.413L760.7 176.8L753.252 193.187C756.859 194.827 760.262 196.228 763.333 197.251C765.991 198.137 769.985 199.3 774.2 199.3V181.3ZM760.7 176.8L768.34 160.502C759.372 156.298 749.738 154.3 739.7 154.3V172.3V190.3C744.862 190.3 749.228 191.302 753.06 193.098L760.7 176.8ZM739.7 172.3V154.3C733.191 154.3 726.159 154.838 720.136 157.084C717.009 158.251 713.018 160.289 709.687 164.016C706.019 168.119 704 173.345 704 178.9H722H740C740 180.402 739.74 182.084 739.085 183.793C738.431 185.5 737.507 186.911 736.526 188.009C734.669 190.086 732.891 190.749 732.714 190.816C732.459 190.911 732.829 190.743 734.176 190.575C735.461 190.415 737.271 190.3 739.7 190.3V172.3ZM722 178.9H704C704 190.337 711.119 197.91 718.145 201.939C724.56 205.619 732.395 207.433 740.038 208.444L742.4 190.6L744.762 172.756C741.97 172.386 739.858 171.95 738.319 171.52C737.561 171.308 737.002 171.115 736.611 170.96C736.218 170.803 736.051 170.709 736.055 170.711C736.058 170.712 736.296 170.848 736.665 171.168C737.041 171.494 737.573 172.03 738.112 172.815C739.32 174.574 740 176.758 740 178.9H722ZM742.4 190.6L740.502 208.5C751.466 209.662 762.19 212.819 772.75 218.1L780.8 202L788.85 185.9C774.61 178.781 759.734 174.338 744.298 172.7L742.4 190.6ZM780.8 202L772.975 218.21C774.644 219.016 776.949 220.808 779.381 225.288L795.2 216.7L811.019 208.112C805.851 198.592 798.556 190.584 788.625 185.79L780.8 202ZM795.2 216.7L779.685 225.826C781.619 229.114 783.2 234.316 783.2 242.5H801.2H819.2C819.2 229.884 816.781 217.886 810.715 207.574L795.2 216.7ZM801.2 242.5H783.2C783.2 250.608 781.646 256.421 779.365 260.641L795.2 269.2L811.035 277.759C816.754 267.179 819.2 255.192 819.2 242.5H801.2ZM795.2 269.2L779.281 260.798C777.14 264.854 774.369 267.541 770.768 269.393L779 285.4L787.232 301.407C797.631 296.059 805.66 287.946 811.119 277.602L795.2 269.2ZM779 285.4L771.153 269.2C761.522 273.866 748.318 276.7 730.7 276.7V294.7V312.7C751.882 312.7 770.878 309.334 786.847 301.6L779 285.4ZM730.7 294.7V276.7C715.212 276.7 699.999 272.237 684.786 262.665L675.2 277.9L665.614 293.135C686.001 305.963 707.788 312.7 730.7 312.7V294.7Z" fill="white" mask="url(#path-3-outside-2_84_3)"/>
</g>
<g filter="url(#filter2_d_84_3)">
<mask id="path-5-outside-3_84_3" maskUnits="userSpaceOnUse" x="560" y="116" width="89" height="194" fill="black">
<rect fill="white" x="560" y="116" width="89" height="194"/>
<path d="M578 160.3C578 155.7 578.1 152.3 578.3 150.1C578.7 147.7 579.6 145 581 142C583.8 136.8 591.6 134.2 604.4 134.2C614 134.2 620.8 135.9 624.8 139.3C628.2 142.1 630 146.4 630.2 152.2C630.4 154.2 630.5 157.1 630.5 160.9V265.9C630.5 270.5 630.3 274 629.9 276.4C629.7 278.6 628.8 281.2 627.2 284.2C624.6 289.4 616.9 292 604.1 292C591.5 292 583.8 289.3 581 283.9C579.6 280.9 578.7 278.3 578.3 276.1C578.1 273.9 578 270.4 578 265.6V160.3Z"/>
</mask>
<path d="M578 160.3C578 155.7 578.1 152.3 578.3 150.1C578.7 147.7 579.6 145 581 142C583.8 136.8 591.6 134.2 604.4 134.2C614 134.2 620.8 135.9 624.8 139.3C628.2 142.1 630 146.4 630.2 152.2C630.4 154.2 630.5 157.1 630.5 160.9V265.9C630.5 270.5 630.3 274 629.9 276.4C629.7 278.6 628.8 281.2 627.2 284.2C624.6 289.4 616.9 292 604.1 292C591.5 292 583.8 289.3 581 283.9C579.6 280.9 578.7 278.3 578.3 276.1C578.1 273.9 578 270.4 578 265.6V160.3Z" fill="#53A857"/>
<path d="M578.3 150.1L560.545 147.141L560.435 147.802L560.374 148.47L578.3 150.1ZM581 142L565.152 133.466L564.907 133.921L564.689 134.388L581 142ZM624.8 139.3L613.142 153.015L613.249 153.106L613.357 153.195L624.8 139.3ZM630.2 152.2L612.211 152.82L612.231 153.407L612.289 153.991L630.2 152.2ZM629.9 276.4L612.145 273.441L612.035 274.102L611.974 274.77L629.9 276.4ZM627.2 284.2L611.318 275.729L611.206 275.938L611.1 276.15L627.2 284.2ZM581 283.9L564.689 291.512L564.848 291.852L565.02 292.186L581 283.9ZM578.3 276.1L560.374 277.73L560.447 278.53L560.59 279.32L578.3 276.1ZM578 160.3H596C596 155.794 596.104 153.074 596.226 151.73L578.3 150.1L560.374 148.47C560.096 151.526 560 155.606 560 160.3H578ZM578.3 150.1L596.055 153.059C596.11 152.729 596.371 151.626 597.311 149.612L581 142L564.689 134.388C562.829 138.374 561.29 142.671 560.545 147.141L578.3 150.1ZM581 142L596.848 150.534C595.346 153.325 593.373 153.649 594.642 153.226C595.981 152.78 598.982 152.2 604.4 152.2V134.2V116.2C597.018 116.2 589.719 116.92 583.258 119.074C576.727 121.251 569.454 125.475 565.152 133.466L581 142ZM604.4 134.2V152.2C608.229 152.2 610.777 152.548 612.334 152.938C613.908 153.331 613.837 153.606 613.142 153.015L624.8 139.3L636.458 125.585C627.422 117.905 615.134 116.2 604.4 116.2V134.2ZM624.8 139.3L613.357 153.195C613.05 152.942 612.766 152.641 612.528 152.317C612.294 151.997 612.16 151.729 612.096 151.575C611.977 151.292 612.168 151.583 612.211 152.82L630.2 152.2L648.189 151.58C647.871 142.355 644.795 132.449 636.243 125.405L624.8 139.3ZM630.2 152.2L612.289 153.991C612.399 155.085 612.5 157.272 612.5 160.9H630.5H648.5C648.5 156.928 648.401 153.315 648.111 150.409L630.2 152.2ZM630.5 160.9H612.5V265.9H630.5H648.5V160.9H630.5ZM630.5 265.9H612.5C612.5 270.217 612.297 272.531 612.145 273.441L629.9 276.4L647.655 279.359C648.303 275.469 648.5 270.783 648.5 265.9H630.5ZM629.9 276.4L611.974 274.77C612.033 274.116 612.15 273.868 612.065 274.112C611.985 274.345 611.774 274.874 611.318 275.729L627.2 284.2L643.082 292.671C645.266 288.575 647.323 283.559 647.826 278.03L629.9 276.4ZM627.2 284.2L611.1 276.15C612.65 273.05 614.883 272.602 613.717 272.996C612.472 273.416 609.533 274 604.1 274V292V310C611.467 310 618.778 309.284 625.234 307.104C631.767 304.898 639.15 300.55 643.3 292.25L627.2 284.2ZM604.1 292V274C598.848 274 596.02 273.406 594.831 272.989C593.799 272.627 595.632 273.016 596.98 275.614L581 283.9L565.02 292.186C569.168 300.184 576.251 304.623 582.919 306.961C589.43 309.244 596.752 310 604.1 310V292ZM581 283.9L597.311 276.288C596.823 275.242 596.496 274.422 596.285 273.812C596.181 273.511 596.112 273.282 596.068 273.12C596.024 272.956 596.009 272.879 596.01 272.88L578.3 276.1L560.59 279.32C561.364 283.575 562.917 287.715 564.689 291.512L581 283.9ZM578.3 276.1L596.226 274.47C596.105 273.139 596 270.333 596 265.6H578H560C560 270.467 560.095 274.661 560.374 277.73L578.3 276.1ZM578 265.6H596V160.3H578H560V265.6H578Z" fill="white" mask="url(#path-5-outside-3_84_3)"/>
</g>
<g filter="url(#filter3_d_84_3)">
<mask id="path-7-outside-4_84_3" maskUnits="userSpaceOnUse" x="396" y="61" width="163" height="249" fill="black">
<rect fill="white" x="396" y="61" width="163" height="249"/>
<path d="M513.8 187L494.3 185.8V227.2C494.3 232.6 495.1 236.5 496.7 238.9C498.5 241.3 501.7 242.5 506.3 242.5C511.1 242.5 514.7 242.7 517.1 243.1C519.7 243.3 522.4 244.2 525.2 245.8C529.8 248.4 532.1 255.1 532.1 265.9C532.1 278.5 529.3 286.2 523.7 289C520.7 290.4 518 291.3 515.6 291.7C513.4 291.9 510.1 292 505.7 292C484.9 292 469.1 287.3 458.3 277.9C447.5 268.5 442.1 252.6 442.1 230.2V185.8C438.3 186.4 434.2 186.7 429.8 186.7C425.4 186.7 421.7 185 418.7 181.6C415.9 178.2 414.5 172.4 414.5 164.2C414.5 156 415 150.1 416 146.5C417 142.7 418.4 140 420.2 138.4C423.4 135.8 427.4 134.5 432.2 134.5L442.1 135.7V104.8C442.1 100.2 442.2 96.8 442.4 94.6C442.8 92.4 443.8 90 445.4 87.4C448 82.4 455.7 79.9 468.5 79.9C482.1 79.9 490.2 83.6 492.8 91C493.8 94.2 494.3 99.3 494.3 106.3V135.7C503.1 134.9 509.7 134.5 514.1 134.5C518.7 134.5 522.1 134.7 524.3 135.1C526.7 135.3 529.4 136.2 532.4 137.8C537.6 140.4 540.2 148.1 540.2 160.9C540.2 173.5 537.5 181.2 532.1 184C529.1 185.4 526.4 186.3 524 186.7C521.8 186.9 518.4 187 513.8 187Z"/>
</mask>
<path d="M513.8 187L494.3 185.8V227.2C494.3 232.6 495.1 236.5 496.7 238.9C498.5 241.3 501.7 242.5 506.3 242.5C511.1 242.5 514.7 242.7 517.1 243.1C519.7 243.3 522.4 244.2 525.2 245.8C529.8 248.4 532.1 255.1 532.1 265.9C532.1 278.5 529.3 286.2 523.7 289C520.7 290.4 518 291.3 515.6 291.7C513.4 291.9 510.1 292 505.7 292C484.9 292 469.1 287.3 458.3 277.9C447.5 268.5 442.1 252.6 442.1 230.2V185.8C438.3 186.4 434.2 186.7 429.8 186.7C425.4 186.7 421.7 185 418.7 181.6C415.9 178.2 414.5 172.4 414.5 164.2C414.5 156 415 150.1 416 146.5C417 142.7 418.4 140 420.2 138.4C423.4 135.8 427.4 134.5 432.2 134.5L442.1 135.7V104.8C442.1 100.2 442.2 96.8 442.4 94.6C442.8 92.4 443.8 90 445.4 87.4C448 82.4 455.7 79.9 468.5 79.9C482.1 79.9 490.2 83.6 492.8 91C493.8 94.2 494.3 99.3 494.3 106.3V135.7C503.1 134.9 509.7 134.5 514.1 134.5C518.7 134.5 522.1 134.7 524.3 135.1C526.7 135.3 529.4 136.2 532.4 137.8C537.6 140.4 540.2 148.1 540.2 160.9C540.2 173.5 537.5 181.2 532.1 184C529.1 185.4 526.4 186.3 524 186.7C521.8 186.9 518.4 187 513.8 187Z" fill="#232323"/>
<path d="M513.8 187L512.694 204.966L513.247 205H513.8V187ZM494.3 185.8L495.406 167.834L476.3 166.658V185.8H494.3ZM496.7 238.9L481.723 248.885L482 249.3L482.3 249.7L496.7 238.9ZM517.1 243.1L514.141 260.855L514.926 260.986L515.719 261.047L517.1 243.1ZM525.2 245.8L516.27 261.428L516.306 261.449L516.343 261.47L525.2 245.8ZM523.7 289L531.312 305.311L531.532 305.208L531.75 305.1L523.7 289ZM515.6 291.7L517.23 309.626L517.898 309.565L518.559 309.455L515.6 291.7ZM458.3 277.9L470.117 264.323H470.117L458.3 277.9ZM442.1 185.8H460.1V164.735L439.293 168.02L442.1 185.8ZM418.7 181.6L404.805 193.043L405 193.279L405.203 193.509L418.7 181.6ZM416 146.5L433.343 151.318L433.376 151.199L433.407 151.081L416 146.5ZM420.2 138.4L408.849 124.43L408.54 124.682L408.241 124.947L420.2 138.4ZM432.2 134.5L434.366 116.631L433.287 116.5H432.2V134.5ZM442.1 135.7L439.934 153.569L460.1 156.014V135.7H442.1ZM442.4 94.6L424.69 91.38L424.547 92.1704L424.474 92.9704L442.4 94.6ZM445.4 87.4L460.73 96.8337L461.07 96.2806L461.37 95.7043L445.4 87.4ZM492.8 91L509.981 85.631L509.887 85.3304L509.782 85.0332L492.8 91ZM494.3 135.7H476.3V155.411L495.93 153.626L494.3 135.7ZM524.3 135.1L521.08 152.81L521.937 152.965L522.805 153.038L524.3 135.1ZM532.4 137.8L523.929 153.682L524.138 153.794L524.35 153.9L532.4 137.8ZM532.1 184L539.712 200.311L540.052 200.152L540.386 199.98L532.1 184ZM524 186.7L525.63 204.626L526.298 204.565L526.959 204.455L524 186.7ZM513.8 187L514.906 169.034L495.406 167.834L494.3 185.8L493.194 203.766L512.694 204.966L513.8 187ZM494.3 185.8H476.3V227.2H494.3H512.3V185.8H494.3ZM494.3 227.2H476.3C476.3 233.51 477.071 241.907 481.723 248.885L496.7 238.9L511.677 228.915C512.136 229.604 512.37 230.146 512.471 230.411C512.572 230.675 512.572 230.748 512.533 230.558C512.495 230.373 512.434 230.007 512.384 229.426C512.334 228.849 512.3 228.113 512.3 227.2H494.3ZM496.7 238.9L482.3 249.7C489.008 258.644 499.138 260.5 506.3 260.5V242.5V224.5C505.458 224.5 505.784 224.376 506.77 224.746C507.926 225.18 509.664 226.185 511.1 228.1L496.7 238.9ZM506.3 242.5V260.5C510.867 260.5 513.257 260.708 514.141 260.855L517.1 243.1L520.059 225.345C516.143 224.692 511.333 224.5 506.3 224.5V242.5ZM517.1 243.1L515.719 261.047C515.11 261 515.249 260.845 516.27 261.428L525.2 245.8L534.13 230.172C529.551 227.555 524.29 225.6 518.481 225.153L517.1 243.1ZM525.2 245.8L516.343 261.47C513.667 259.958 513.136 257.996 513.35 258.619C513.454 258.922 513.655 259.641 513.822 260.914C513.988 262.175 514.1 263.818 514.1 265.9H532.1H550.1C550.1 259.442 549.441 252.876 547.4 246.931C545.314 240.854 541.333 234.242 534.057 230.13L525.2 245.8ZM532.1 265.9H514.1C514.1 271.108 513.489 273.859 513.084 274.974C512.757 275.873 513.184 274.134 515.65 272.9L523.7 289L531.75 305.1C539.816 301.066 544.443 294.077 546.916 287.276C549.311 280.691 550.1 273.292 550.1 265.9H532.1ZM523.7 289L516.088 272.689C514.074 273.629 512.971 273.89 512.641 273.945L515.6 291.7L518.559 309.455C523.029 308.71 527.327 307.171 531.312 305.311L523.7 289ZM515.6 291.7L513.97 273.774C512.612 273.897 509.977 274 505.7 274V292V310C510.223 310 514.188 309.903 517.23 309.626L515.6 291.7ZM505.7 292V274C487.315 274 476.432 269.818 470.117 264.323L458.3 277.9L446.483 291.477C461.768 304.782 482.485 310 505.7 310V292ZM458.3 277.9L470.117 264.323C465.011 259.878 460.1 250.312 460.1 230.2H442.1H424.1C424.1 254.888 429.989 277.122 446.483 291.477L458.3 277.9ZM442.1 230.2H460.1V185.8H442.1H424.1V230.2H442.1ZM442.1 185.8L439.293 168.02C436.542 168.455 433.391 168.7 429.8 168.7V186.7V204.7C435.009 204.7 440.058 204.345 444.907 203.58L442.1 185.8ZM429.8 186.7V168.7C429.982 168.7 430.547 168.751 431.24 169.069C431.919 169.381 432.225 169.722 432.197 169.691L418.7 181.6L405.203 193.509C411.501 200.647 420.058 204.7 429.8 204.7V186.7ZM418.7 181.6L432.595 170.157C433.428 171.169 433.323 171.619 433.047 170.476C432.779 169.365 432.5 167.366 432.5 164.2H414.5H396.5C396.5 173.425 397.872 184.623 404.805 193.043L418.7 181.6ZM414.5 164.2H432.5C432.5 156.165 433.047 152.383 433.343 151.318L416 146.5L398.657 141.682C396.953 147.817 396.5 155.835 396.5 164.2H414.5ZM416 146.5L433.407 151.081C433.662 150.114 433.838 149.798 433.78 149.911C433.722 150.022 433.273 150.863 432.159 151.853L420.2 138.4L408.241 124.947C402.598 129.963 399.978 136.653 398.593 141.919L416 146.5ZM420.2 138.4L431.551 152.37C431.491 152.419 431.411 152.473 431.323 152.521C431.235 152.569 431.176 152.59 431.164 152.594C431.133 152.603 431.427 152.5 432.2 152.5V134.5V116.5C423.978 116.5 415.77 118.807 408.849 124.43L420.2 138.4ZM432.2 134.5L430.034 152.369L439.934 153.569L442.1 135.7L444.266 117.831L434.366 116.631L432.2 134.5ZM442.1 135.7H460.1V104.8H442.1H424.1V135.7H442.1ZM442.1 104.8H460.1C460.1 100.294 460.204 97.5737 460.326 96.2296L442.4 94.6L424.474 92.9704C424.196 96.0263 424.1 100.106 424.1 104.8H442.1ZM442.4 94.6L460.11 97.8199C460.045 98.1755 459.984 98.2692 460.065 98.0731C460.147 97.8766 460.341 97.466 460.73 96.8337L445.4 87.4L430.07 77.9662C427.698 81.8212 425.608 86.3352 424.69 91.38L442.4 94.6ZM445.4 87.4L461.37 95.7043C459.693 98.9282 457.36 99.325 458.684 98.8952C460.008 98.4652 463.025 97.9 468.5 97.9V79.9V61.9C461.175 61.9 453.942 62.5847 447.566 64.6547C441.19 66.725 433.707 70.8718 429.43 79.0956L445.4 87.4ZM468.5 79.9V97.9C473.949 97.9 476.501 98.6845 477.296 99.0477C477.582 99.1782 477.313 99.1061 476.859 98.636C476.371 98.1292 476.009 97.5116 475.818 96.9668L492.8 91L509.782 85.0332C503.07 65.9283 483.513 61.9 468.5 61.9V79.9ZM492.8 91L475.619 96.3689C475.613 96.3494 475.825 97.0869 476.011 98.9813C476.187 100.781 476.3 103.191 476.3 106.3H494.3H512.3C512.3 99.0121 511.844 91.5941 509.981 85.631L492.8 91ZM494.3 106.3H476.3V135.7H494.3H512.3V106.3H494.3ZM494.3 135.7L495.93 153.626C504.612 152.837 510.548 152.5 514.1 152.5V134.5V116.5C508.852 116.5 501.588 116.963 492.67 117.774L494.3 135.7ZM514.1 134.5V152.5C518.501 152.5 520.554 152.714 521.08 152.81L524.3 135.1L527.52 117.39C523.646 116.686 518.899 116.5 514.1 116.5V134.5ZM524.3 135.1L522.805 153.038C522.346 153 522.204 152.925 522.433 153.001C522.662 153.078 523.155 153.269 523.929 153.682L532.4 137.8L540.871 121.918C536.535 119.605 531.422 117.631 525.795 117.162L524.3 135.1ZM532.4 137.8L524.35 153.9C521.25 152.35 520.802 150.117 521.196 151.283C521.616 152.528 522.2 155.467 522.2 160.9H540.2H558.2C558.2 153.533 557.484 146.222 555.304 139.766C553.098 133.233 548.75 125.85 540.45 121.7L532.4 137.8ZM540.2 160.9H522.2C522.2 166.152 521.606 168.98 521.189 170.169C520.827 171.201 521.216 169.368 523.814 168.02L532.1 184L540.386 199.98C548.384 195.832 552.823 188.749 555.161 182.081C557.444 175.57 558.2 168.248 558.2 160.9H540.2ZM532.1 184L524.488 167.689C522.474 168.629 521.371 168.89 521.041 168.945L524 186.7L526.959 204.455C531.429 203.71 535.727 202.171 539.712 200.311L532.1 184ZM524 186.7L522.37 168.774C521.026 168.896 518.306 169 513.8 169V187V205C518.494 205 522.574 204.904 525.63 204.626L524 186.7Z" fill="white" mask="url(#path-7-outside-4_84_3)"/>
</g>
<g filter="url(#filter4_d_84_3)">
<mask id="path-9-outside-5_84_3" maskUnits="userSpaceOnUse" x="205" y="112" width="194" height="202" fill="black">
<rect fill="white" x="205" y="112" width="194" height="202"/>
<path d="M380.4 194.2C380.4 206.4 377.3 215.5 371.1 221.5C365.1 227.3 358.4 230.2 351 230.2H279.9C279.9 235.8 283.2 240.5 289.8 244.3C296.4 248.1 303 250 309.6 250C321.2 250 330.3 248.8 336.9 246.4L340.2 245.2C345 243 349 241.9 352.2 241.9C358.6 241.9 364.1 246.4 368.7 255.4C371.3 260.8 372.6 265.4 372.6 269.2C372.6 287 351.3 295.9 308.7 295.9C293.9 295.9 280.7 293.4 269.1 288.4C257.7 283.2 248.8 276.4 242.4 268C229.8 251.8 223.5 233.7 223.5 213.7C223.5 188.5 231.6 168.4 247.8 153.4C264.2 138.2 284.6 130.6 309 130.6C336.8 130.6 357.2 140.4 370.2 160C377 170.4 380.4 181.8 380.4 194.2ZM317.1 202.9C324.7 202.9 328.5 199.7 328.5 193.3C328.5 188.7 326.7 185 323.1 182.2C319.7 179.4 314.7 178 308.1 178C301.7 178 295.3 180.7 288.9 186.1C282.5 191.3 279.3 196.9 279.3 202.9H317.1Z"/>
</mask>
<path d="M380.4 194.2C380.4 206.4 377.3 215.5 371.1 221.5C365.1 227.3 358.4 230.2 351 230.2H279.9C279.9 235.8 283.2 240.5 289.8 244.3C296.4 248.1 303 250 309.6 250C321.2 250 330.3 248.8 336.9 246.4L340.2 245.2C345 243 349 241.9 352.2 241.9C358.6 241.9 364.1 246.4 368.7 255.4C371.3 260.8 372.6 265.4 372.6 269.2C372.6 287 351.3 295.9 308.7 295.9C293.9 295.9 280.7 293.4 269.1 288.4C257.7 283.2 248.8 276.4 242.4 268C229.8 251.8 223.5 233.7 223.5 213.7C223.5 188.5 231.6 168.4 247.8 153.4C264.2 138.2 284.6 130.6 309 130.6C336.8 130.6 357.2 140.4 370.2 160C377 170.4 380.4 181.8 380.4 194.2ZM317.1 202.9C324.7 202.9 328.5 199.7 328.5 193.3C328.5 188.7 326.7 185 323.1 182.2C319.7 179.4 314.7 178 308.1 178C301.7 178 295.3 180.7 288.9 186.1C282.5 191.3 279.3 196.9 279.3 202.9H317.1Z" fill="#FFAA16"/>
<path d="M371.1 221.5L383.61 234.442L383.618 234.435L371.1 221.5ZM279.9 230.2V212.2H261.9V230.2H279.9ZM289.8 244.3L298.781 228.701L289.8 244.3ZM336.9 246.4L330.749 229.484L330.749 229.484L336.9 246.4ZM340.2 245.2L346.351 262.116L347.037 261.867L347.7 261.563L340.2 245.2ZM368.7 255.4L384.918 247.591L384.825 247.399L384.728 247.208L368.7 255.4ZM269.1 288.4L261.63 304.777L261.802 304.855L261.975 304.93L269.1 288.4ZM242.4 268L256.718 257.091L256.663 257.02L256.608 256.949L242.4 268ZM247.8 153.4L260.029 166.608L260.036 166.602L247.8 153.4ZM370.2 160L385.265 150.149L385.233 150.1L385.2 150.051L370.2 160ZM323.1 182.2L311.657 196.095L311.851 196.254L312.049 196.408L323.1 182.2ZM288.9 186.1L300.251 200.07L300.38 199.965L300.508 199.857L288.9 186.1ZM279.3 202.9H261.3V220.9H279.3V202.9ZM380.4 194.2H362.4C362.4 203.576 360.037 207.158 358.582 208.565L371.1 221.5L383.618 234.435C394.563 223.842 398.4 209.224 398.4 194.2H380.4ZM371.1 221.5L358.59 208.558C355.481 211.563 353.123 212.2 351 212.2V230.2V248.2C363.677 248.2 374.719 243.037 383.61 234.442L371.1 221.5ZM351 230.2V212.2H279.9V230.2V248.2H351V230.2ZM279.9 230.2H261.9C261.9 244.488 270.91 254.194 280.819 259.899L289.8 244.3L298.781 228.701C297.948 228.221 297.452 227.846 297.194 227.624C296.942 227.407 296.964 227.379 297.106 227.582C297.26 227.801 297.486 228.193 297.66 228.739C297.837 229.289 297.9 229.803 297.9 230.2H279.9ZM289.8 244.3L280.819 259.899C289.725 265.027 299.39 268 309.6 268V250V232C306.61 232 303.075 231.173 298.781 228.701L289.8 244.3ZM309.6 250V268C322.114 268 333.611 266.749 343.051 263.316L336.9 246.4L330.749 229.484C326.989 230.851 320.286 232 309.6 232V250ZM336.9 246.4L343.051 263.316L346.351 262.116L340.2 245.2L334.049 228.284L330.749 229.484L336.9 246.4ZM340.2 245.2L347.7 261.563C349.444 260.764 350.719 260.316 351.573 260.081C352.451 259.839 352.607 259.9 352.2 259.9V241.9V223.9C345.259 223.9 338.513 226.173 332.7 228.837L340.2 245.2ZM352.2 241.9V259.9C351.638 259.9 351.024 259.792 350.465 259.58C349.928 259.377 349.686 259.173 349.727 259.206C349.787 259.255 350.123 259.547 350.668 260.277C351.214 261.006 351.898 262.077 352.672 263.592L368.7 255.4L384.728 247.208C378.989 235.981 368.763 223.9 352.2 223.9V241.9ZM368.7 255.4L352.482 263.209C353.439 265.195 353.997 266.71 354.303 267.795C354.614 268.893 354.6 269.317 354.6 269.2H372.6H390.6C390.6 261.58 388.085 254.169 384.918 247.591L368.7 255.4ZM372.6 269.2H354.6C354.6 269.757 354.54 269.65 354.535 269.656C354.307 269.942 353.159 271.165 349.685 272.617C342.377 275.67 329.289 277.9 308.7 277.9V295.9V313.9C330.711 313.9 349.573 311.68 363.565 305.833C370.741 302.835 377.58 298.495 382.677 292.106C387.997 285.438 390.6 277.543 390.6 269.2H372.6ZM308.7 295.9V277.9C295.935 277.9 285.222 275.748 276.225 271.87L269.1 288.4L261.975 304.93C276.178 311.052 291.865 313.9 308.7 313.9V295.9ZM269.1 288.4L276.57 272.023C267.366 267.825 261.013 262.729 256.718 257.091L242.4 268L228.082 278.909C236.587 290.071 248.034 298.575 261.63 304.777L269.1 288.4ZM242.4 268L256.608 256.949C246.396 243.819 241.5 229.586 241.5 213.7H223.5H205.5C205.5 237.814 213.204 259.781 228.192 279.051L242.4 268ZM223.5 213.7H241.5C241.5 192.734 248.044 177.705 260.029 166.608L247.8 153.4L235.571 140.192C215.156 159.095 205.5 184.266 205.5 213.7H223.5ZM247.8 153.4L260.036 166.602C272.792 154.779 288.687 148.6 309 148.6V130.6V112.6C280.513 112.6 255.609 121.621 235.564 140.198L247.8 153.4ZM309 130.6V148.6C332.036 148.6 346.18 156.35 355.2 169.949L370.2 160L385.2 150.051C368.22 124.45 341.564 112.6 309 112.6V130.6ZM370.2 160L355.135 169.85C360.024 177.328 362.4 185.307 362.4 194.2H380.4H398.4C398.4 178.293 393.976 163.472 385.265 150.149L370.2 160ZM317.1 202.9V220.9C322.992 220.9 330.765 219.724 337.244 214.268C344.316 208.313 346.5 200.163 346.5 193.3H328.5H310.5C310.5 193.157 310.517 192.223 311.051 190.875C311.628 189.418 312.636 187.927 314.056 186.732C316.735 184.476 318.808 184.9 317.1 184.9V202.9ZM328.5 193.3H346.5C346.5 183.202 342.18 174.236 334.151 167.992L323.1 182.2L312.049 196.408C311.914 196.303 311.394 195.834 310.964 194.949C310.536 194.07 310.5 193.404 310.5 193.3H328.5ZM323.1 182.2L334.543 168.305C326.655 161.809 316.873 160 308.1 160V178V196C310.18 196 311.386 196.226 311.947 196.383C312.461 196.527 312.205 196.546 311.657 196.095L323.1 182.2ZM308.1 178V160C296.288 160 285.923 165.06 277.292 172.343L288.9 186.1L300.508 199.857C304.677 196.34 307.112 196 308.1 196V178ZM288.9 186.1L277.549 172.13C268.608 179.395 261.3 189.647 261.3 202.9H279.3H297.3C297.3 203.266 297.162 203.421 297.328 203.13C297.566 202.714 298.316 201.642 300.251 200.07L288.9 186.1ZM279.3 202.9V220.9H317.1V202.9V184.9H279.3V202.9Z" fill="white" mask="url(#path-9-outside-5_84_3)"/>
</g>
<g filter="url(#filter5_d_84_3)">
<mask id="path-11-outside-6_84_3" maskUnits="userSpaceOnUse" x="4" y="115" width="194" height="195" fill="black">
<rect fill="white" x="4" y="115" width="194" height="195"/>
<path d="M109.9 133.9C129.9 133.9 146.5 141.6 159.7 157C173.1 172.2 179.8 190.8 179.8 212.8V265.6C179.8 270.2 179.6 273.7 179.2 276.1C179 278.3 178.2 280.8 176.8 283.6C174 289 166.2 291.7 153.4 291.7C139.2 291.7 131 288 128.8 280.6C127.6 277.2 127 272.1 127 265.3V212.5C127 204.3 124.6 197.9 119.8 193.3C115.2 188.7 108.9 186.4 100.9 186.4C93.1 186.4 86.7 188.8 81.7 193.6C76.9 198.4 74.5 204.7 74.5 212.5V265.6C74.5 270.2 74.3 273.7 73.9 276.1C73.7 278.3 72.8 280.8 71.2 283.6C68.6 289 60.9 291.7 48.1 291.7C35.5 291.7 27.8 289 25 283.6C23.6 280.6 22.7 278 22.3 275.8C22.1 273.4 22 269.9 22 265.3V159.1C22 154.7 22.1 151.4 22.3 149.2C22.7 146.8 23.7 144.2 25.3 141.4C28.1 136.4 35.8 133.9 48.4 133.9C60.6 133.9 68.1 136.2 70.9 140.8C72.9 144.2 73.9 148.3 73.9 153.1C74.7 151.7 76.5 149.7 79.3 147.1C82.1 144.5 84.8 142.4 87.4 140.8C94.2 136.2 101.7 133.9 109.9 133.9Z"/>
</mask>
<path d="M109.9 133.9C129.9 133.9 146.5 141.6 159.7 157C173.1 172.2 179.8 190.8 179.8 212.8V265.6C179.8 270.2 179.6 273.7 179.2 276.1C179 278.3 178.2 280.8 176.8 283.6C174 289 166.2 291.7 153.4 291.7C139.2 291.7 131 288 128.8 280.6C127.6 277.2 127 272.1 127 265.3V212.5C127 204.3 124.6 197.9 119.8 193.3C115.2 188.7 108.9 186.4 100.9 186.4C93.1 186.4 86.7 188.8 81.7 193.6C76.9 198.4 74.5 204.7 74.5 212.5V265.6C74.5 270.2 74.3 273.7 73.9 276.1C73.7 278.3 72.8 280.8 71.2 283.6C68.6 289 60.9 291.7 48.1 291.7C35.5 291.7 27.8 289 25 283.6C23.6 280.6 22.7 278 22.3 275.8C22.1 273.4 22 269.9 22 265.3V159.1C22 154.7 22.1 151.4 22.3 149.2C22.7 146.8 23.7 144.2 25.3 141.4C28.1 136.4 35.8 133.9 48.4 133.9C60.6 133.9 68.1 136.2 70.9 140.8C72.9 144.2 73.9 148.3 73.9 153.1C74.7 151.7 76.5 149.7 79.3 147.1C82.1 144.5 84.8 142.4 87.4 140.8C94.2 136.2 101.7 133.9 109.9 133.9Z" fill="#1F79C3"/>
<path d="M159.7 157L146.033 168.714L146.115 168.809L146.198 168.903L159.7 157ZM179.2 276.1L161.445 273.141L161.335 273.802L161.274 274.47L179.2 276.1ZM176.8 283.6L192.78 291.886L192.841 291.768L192.9 291.65L176.8 283.6ZM128.8 280.6L146.054 275.471L145.925 275.036L145.774 274.609L128.8 280.6ZM119.8 193.3L107.072 206.028L107.207 206.163L107.346 206.296L119.8 193.3ZM81.7 193.6L69.2344 180.615L69.1019 180.742L68.9721 180.872L81.7 193.6ZM73.9 276.1L56.1449 273.141L56.0346 273.802L55.9739 274.47L73.9 276.1ZM71.2 283.6L55.5716 274.669L55.257 275.22L54.982 275.791L71.2 283.6ZM25 283.6L8.6887 291.212L8.84753 291.552L9.02042 291.886L25 283.6ZM22.3 275.8L4.36218 277.295L4.43452 278.163L4.59034 279.02L22.3 275.8ZM22.3 149.2L4.54491 146.241L4.43465 146.902L4.37392 147.57L22.3 149.2ZM25.3 141.4L40.9284 150.33L40.967 150.263L41.0051 150.195L25.3 141.4ZM70.9 140.8L86.4148 131.674L86.3461 131.557L86.2756 131.441L70.9 140.8ZM73.9 153.1H55.9V220.88L89.5284 162.03L73.9 153.1ZM79.3 147.1L91.5481 160.29L91.5481 160.29L79.3 147.1ZM87.4 140.8L96.8337 156.13L97.1642 155.926L97.4856 155.709L87.4 140.8ZM109.9 133.9V151.9C124.56 151.9 136.197 157.239 146.033 168.714L159.7 157L173.367 145.286C156.803 125.961 135.24 115.9 109.9 115.9V133.9ZM159.7 157L146.198 168.903C156.441 180.523 161.8 194.777 161.8 212.8H179.8H197.8C197.8 186.823 189.759 163.877 173.202 145.097L159.7 157ZM179.8 212.8H161.8V265.6H179.8H197.8V212.8H179.8ZM179.8 265.6H161.8C161.8 269.917 161.597 272.231 161.445 273.141L179.2 276.1L196.955 279.059C197.603 275.169 197.8 270.483 197.8 265.6H179.8ZM179.2 276.1L161.274 274.47C161.313 274.043 161.378 273.915 161.306 274.139C161.236 274.36 161.063 274.824 160.7 275.55L176.8 283.6L192.9 291.65C194.917 287.615 196.657 282.888 197.126 277.73L179.2 276.1ZM176.8 283.6L160.82 275.314C162.206 272.642 164.089 272.275 162.962 272.665C161.7 273.102 158.774 273.7 153.4 273.7V291.7V309.7C160.826 309.7 168.2 308.948 174.738 306.685C181.411 304.375 188.594 299.958 192.78 291.886L176.8 283.6ZM153.4 291.7V273.7C150.6 273.7 148.434 273.515 146.808 273.247C145.168 272.976 144.314 272.658 144.003 272.518C143.727 272.393 144.12 272.52 144.71 273.149C145.352 273.834 145.819 274.683 146.054 275.471L128.8 280.6L111.546 285.729C114.389 295.29 121.203 301.725 129.197 305.332C136.582 308.664 145.064 309.7 153.4 309.7V291.7ZM128.8 280.6L145.774 274.609C145.781 274.63 145.716 274.447 145.622 274.002C145.529 273.563 145.424 272.946 145.327 272.122C145.13 270.452 145 268.207 145 265.3H127H109C109 272.666 109.587 280.246 111.826 286.591L128.8 280.6ZM127 265.3H145V212.5H127H109V265.3H127ZM127 212.5H145C145 200.616 141.392 189.062 132.254 180.304L119.8 193.3L107.346 206.296C107.808 206.738 109 207.984 109 212.5H127ZM119.8 193.3L132.528 180.572C123.809 171.853 112.509 168.4 100.9 168.4V186.4V204.4C105.291 204.4 106.591 205.547 107.072 206.028L119.8 193.3ZM100.9 186.4V168.4C89.0851 168.4 78.0162 172.185 69.2344 180.615L81.7 193.6L94.1656 206.585C95.3838 205.415 97.1149 204.4 100.9 204.4V186.4ZM81.7 193.6L68.9721 180.872C60.2872 189.557 56.5 200.698 56.5 212.5H74.5H92.5C92.5 208.702 93.5128 207.243 94.4279 206.328L81.7 193.6ZM74.5 212.5H56.5V265.6H74.5H92.5V212.5H74.5ZM74.5 265.6H56.5C56.5 269.917 56.2965 272.231 56.1449 273.141L73.9 276.1L91.6551 279.059C92.3035 275.169 92.5 270.483 92.5 265.6H74.5ZM73.9 276.1L55.9739 274.47C56.0062 274.116 56.0567 273.857 56.0924 273.704C56.1279 273.552 56.1521 273.492 56.139 273.528C56.126 273.564 56.0822 273.68 55.989 273.877C55.896 274.074 55.7612 274.338 55.5716 274.669L71.2 283.6L86.8284 292.53C89.1673 288.437 91.3105 283.401 91.8261 277.73L73.9 276.1ZM71.2 283.6L54.982 275.791C56.4093 272.827 58.5355 272.333 57.5189 272.689C56.3525 273.098 53.4901 273.7 48.1 273.7V291.7V309.7C55.5099 309.7 62.8975 308.952 69.4311 306.661C76.1146 304.317 83.3907 299.773 87.418 291.409L71.2 283.6ZM48.1 291.7V273.7C42.8477 273.7 40.0204 273.106 38.8311 272.689C37.7992 272.327 39.6324 272.716 40.9796 275.314L25 283.6L9.02042 291.886C13.1676 299.884 20.2508 304.323 26.9189 306.661C33.4296 308.944 40.7523 309.7 48.1 309.7V291.7ZM25 283.6L41.3113 275.988C40.8229 274.942 40.496 274.122 40.2847 273.512C40.1807 273.211 40.1118 272.982 40.0678 272.82C40.0236 272.656 40.0094 272.579 40.0097 272.58L22.3 275.8L4.59034 279.02C5.36407 283.275 6.91692 287.415 8.6887 291.212L25 283.6ZM22.3 275.8L40.2378 274.305C40.1011 272.665 40 269.762 40 265.3H22H4C4 270.038 4.09886 274.135 4.36218 277.295L22.3 275.8ZM22 265.3H40V159.1H22H4V265.3H22ZM22 159.1H40C40 154.823 40.1026 152.188 40.2261 150.83L22.3 149.2L4.37392 147.57C4.09738 150.612 4 154.577 4 159.1H22ZM22.3 149.2L40.0551 152.159C40.0117 152.419 40.0611 151.848 40.9284 150.33L25.3 141.4L9.67163 132.469C7.33894 136.552 5.38829 141.181 4.54491 146.241L22.3 149.2ZM25.3 141.4L41.0051 150.195C39.4216 153.022 37.4149 153.323 38.7335 152.895C40.0792 152.458 43.06 151.9 48.4 151.9V133.9V115.9C41.14 115.9 33.9708 116.592 27.6165 118.655C21.2351 120.727 13.9784 124.778 9.5949 132.605L25.3 141.4ZM48.4 133.9V151.9C53.5871 151.9 56.5308 152.415 57.8976 152.834C59.3249 153.272 57.2696 153.026 55.5244 150.159L70.9 140.8L86.2756 131.441C81.7304 123.974 74.5251 120.278 68.4524 118.416C62.3192 116.535 55.413 115.9 48.4 115.9V133.9ZM70.9 140.8L55.3852 149.926C55.4386 150.017 55.9 150.815 55.9 153.1H73.9H91.9C91.9 145.785 90.3614 138.383 86.4148 131.674L70.9 140.8ZM73.9 153.1L89.5284 162.03C89.2258 162.56 89.0012 162.852 88.9859 162.872C88.9567 162.91 89.0229 162.821 89.2293 162.591C89.6554 162.118 90.3933 161.363 91.5481 160.29L79.3 147.1L67.0519 133.91C64.2428 136.518 60.5713 140.145 58.2716 144.169L73.9 153.1ZM79.3 147.1L91.5481 160.29C93.6882 158.303 95.4536 156.979 96.8337 156.13L87.4 140.8L77.9663 125.47C74.1464 127.821 70.5118 130.697 67.0519 133.91L79.3 147.1ZM87.4 140.8L97.4856 155.709C101.312 153.121 105.3 151.9 109.9 151.9V133.9V115.9C98.1003 115.9 87.0884 119.279 77.3144 125.891L87.4 140.8Z" fill="white" mask="url(#path-11-outside-6_84_3)"/>
</g>
<path d="M606.676 15.2769L620.931 45.6771L655.302 49.0916L629.355 74.441L633.937 108.359L603.646 93.6252L572.107 111.173L579.333 76.7178L555.258 53.6453L590.015 47.0843L606.676 15.2769Z" fill="#66A562" stroke="url(#paint0_linear_84_3)" stroke-width="15" stroke-linejoin="round"/>
<defs>
<filter id="filter0_d_84_3" x="822" y="115.6" width="201.8" height="202.1" filterUnits="userSpaceOnUse" color-interpolation-filters="sRGB">
<feFlood flood-opacity="0" result="BackgroundImageFix"/>
<feColorMatrix in="SourceAlpha" type="matrix" values="0 0 0 0 0 0 0 0 0 0 0 0 0 0 0 0 0 0 127 0" result="hardAlpha"/>
<feOffset dy="4"/>
<feGaussianBlur stdDeviation="2"/>
<feComposite in2="hardAlpha" operator="out"/>
<feColorMatrix type="matrix" values="0 0 0 0 0 0 0 0 0 0 0 0 0 0 0 0 0 0 0.25 0"/>
<feBlend mode="normal" in2="BackgroundImageFix" result="effect1_dropShadow_84_3"/>
<feBlend mode="normal" in="SourceGraphic" in2="effect1_dropShadow_84_3" result="shape"/>
</filter>
<filter id="filter1_d_84_3" x="647.5" y="112.9" width="175.7" height="207.8" filterUnits="userSpaceOnUse" color-interpolation-filters="sRGB">
<feFlood flood-opacity="0" result="BackgroundImageFix"/>
<feColorMatrix in="SourceAlpha" type="matrix" values="0 0 0 0 0 0 0 0 0 0 0 0 0 0 0 0 0 0 127 0" result="hardAlpha"/>
<feOffset dy="4"/>
<feGaussianBlur stdDeviation="2"/>
<feComposite in2="hardAlpha" operator="out"/>
<feColorMatrix type="matrix" values="0 0 0 0 0 0 0 0 0 0 0 0 0 0 0 0 0 0 0.25 0"/>
<feBlend mode="normal" in2="BackgroundImageFix" result="effect1_dropShadow_84_3"/>
<feBlend mode="normal" in="SourceGraphic" in2="effect1_dropShadow_84_3" result="shape"/>
</filter>
<filter id="filter2_d_84_3" x="556" y="116.2" width="96.5" height="201.8" filterUnits="userSpaceOnUse" color-interpolation-filters="sRGB">
<feFlood flood-opacity="0" result="BackgroundImageFix"/>
<feColorMatrix in="SourceAlpha" type="matrix" values="0 0 0 0 0 0 0 0 0 0 0 0 0 0 0 0 0 0 127 0" result="hardAlpha"/>
<feOffset dy="4"/>
<feGaussianBlur stdDeviation="2"/>
<feComposite in2="hardAlpha" operator="out"/>
<feColorMatrix type="matrix" values="0 0 0 0 0 0 0 0 0 0 0 0 0 0 0 0 0 0 0.25 0"/>
<feBlend mode="normal" in2="BackgroundImageFix" result="effect1_dropShadow_84_3"/>
<feBlend mode="normal" in="SourceGraphic" in2="effect1_dropShadow_84_3" result="shape"/>
</filter>
<filter id="filter3_d_84_3" x="392.5" y="61.9" width="169.7" height="256.1" filterUnits="userSpaceOnUse" color-interpolation-filters="sRGB">
<feFlood flood-opacity="0" result="BackgroundImageFix"/>
<feColorMatrix in="SourceAlpha" type="matrix" values="0 0 0 0 0 0 0 0 0 0 0 0 0 0 0 0 0 0 127 0" result="hardAlpha"/>
<feOffset dy="4"/>
<feGaussianBlur stdDeviation="2"/>
<feComposite in2="hardAlpha" operator="out"/>
<feColorMatrix type="matrix" values="0 0 0 0 0 0 0 0 0 0 0 0 0 0 0 0 0 0 0.25 0"/>
<feBlend mode="normal" in2="BackgroundImageFix" result="effect1_dropShadow_84_3"/>
<feBlend mode="normal" in="SourceGraphic" in2="effect1_dropShadow_84_3" result="shape"/>
</filter>
<filter id="filter4_d_84_3" x="201.5" y="112.6" width="200.9" height="209.3" filterUnits="userSpaceOnUse" color-interpolation-filters="sRGB">
<feFlood flood-opacity="0" result="BackgroundImageFix"/>
<feColorMatrix in="SourceAlpha" type="matrix" values="0 0 0 0 0 0 0 0 0 0 0 0 0 0 0 0 0 0 127 0" result="hardAlpha"/>
<feOffset dy="4"/>
<feGaussianBlur stdDeviation="2"/>
<feComposite in2="hardAlpha" operator="out"/>
<feColorMatrix type="matrix" values="0 0 0 0 0 0 0 0 0 0 0 0 0 0 0 0 0 0 0.25 0"/>
<feBlend mode="normal" in2="BackgroundImageFix" result="effect1_dropShadow_84_3"/>
<feBlend mode="normal" in="SourceGraphic" in2="effect1_dropShadow_84_3" result="shape"/>
</filter>
<filter id="filter5_d_84_3" x="0" y="115.9" width="201.8" height="201.8" filterUnits="userSpaceOnUse" color-interpolation-filters="sRGB">
<feFlood flood-opacity="0" result="BackgroundImageFix"/>
<feColorMatrix in="SourceAlpha" type="matrix" values="0 0 0 0 0 0 0 0 0 0 0 0 0 0 0 0 0 0 127 0" result="hardAlpha"/>
<feOffset dy="4"/>
<feGaussianBlur stdDeviation="2"/>
<feComposite in2="hardAlpha" operator="out"/>
<feColorMatrix type="matrix" values="0 0 0 0 0 0 0 0 0 0 0 0 0 0 0 0 0 0 0.25 0"/>
<feBlend mode="normal" in2="BackgroundImageFix" result="effect1_dropShadow_84_3"/>
<feBlend mode="normal" in="SourceGraphic" in2="effect1_dropShadow_84_3" result="shape"/>
</filter>
<linearGradient id="paint0_linear_84_3" x1="581.659" y1="95.2835" x2="619.852" y2="36.6324" gradientUnits="userSpaceOnUse">
<stop stop-color="#62ACFF"/>
<stop offset="0.25" stop-color="#E95F4B"/>
<stop offset="0.53" stop-color="#66A562"/>
<stop offset="0.82" stop-color="#F9B256"/>
<stop offset="1" stop-color="#457AB8"/>
</linearGradient>
</defs>
</svg>
