<svg width="1046" height="417" viewBox="0 0 1046 417" fill="none" xmlns="http://www.w3.org/2000/svg">
    <g clip-path="url(#clip0_8_2)">
        <g clip-path="url(#clip1_8_2)">
            <path d="M154.205 93.3197C156.346 88.9018 156.001 81.2711 142.897 69.7732C142.97 62.9369 141.171 56.211 137.696 50.3236C134.22 44.4362 129.2 39.6117 123.179 36.3725C117.159 33.1332 110.367 31.6026 103.539 31.9464C96.7106 32.2901 90.1066 34.4951 84.4418 38.3227C83.6645 38.8469 82.9127 39.3948 82.1863 39.9665C64.9896 36.6294 58.7797 41.0725 56.625 45.5132C54.5977 49.6888 55.7755 54.5014 59.135 59.4821C61.2735 62.6525 64.2985 65.894 67.9225 69.0802C67.8551 75.9145 69.658 82.6371 73.136 88.5205C76.614 94.404 81.6346 99.2244 87.6548 102.46C93.6749 105.696 100.465 107.224 107.291 106.878C114.117 106.533 120.718 104.327 126.381 100.5C127.162 99.974 127.913 99.425 128.641 98.849C136.424 100.342 142.988 100.414 147.492 98.8554C151.483 97.4925 153.355 95.0848 154.205 93.3197ZM128.728 53.6843C132.283 58.9703 133.942 65.3053 133.432 71.6553C132.923 78.0052 130.277 83.9951 125.925 88.6471C118.703 86.8325 110.064 83.707 100.725 79.1313C91.9316 74.8192 83.9713 69.9122 77.6661 64.9582C78.5644 59.3943 81.1137 54.2285 84.9833 50.1309C88.8529 46.0333 93.8644 43.1927 99.3678 41.9776C104.871 40.7625 110.613 41.2289 115.848 43.3163C121.083 45.4037 125.571 49.0158 128.728 53.6843ZM65.0566 49.6029C65.2698 49.1717 67.6814 47.7524 74.4179 48.3161C72.4314 51.2425 70.87 54.4357 69.7802 57.8005C65.1713 52.7908 64.838 50.0613 65.0566 49.6029ZM82.0948 85.1389C80.4198 82.6565 79.154 79.9214 78.3457 77.0379C84.1816 80.9522 90.2787 84.4623 96.5942 87.5436C102.851 90.6367 109.315 93.2939 115.938 95.4963C109.963 97.8982 103.345 98.1803 97.187 96.2957C91.0289 94.411 85.7025 90.4735 82.0948 85.1389ZM144.438 90.0031C142.61 90.6327 139.867 90.8198 136.404 90.5265C138.394 87.5977 139.958 84.401 141.049 81.0323C145.275 85.6411 146.11 88.5358 145.771 89.2267C145.714 89.3451 145.345 89.6927 144.438 90.0031Z"
                  fill="white"/>
        </g>
        <g clip-path="url(#clip2_8_2)">
            <path d="M357.91 79.6799C358.13 79.3042 358.297 78.8995 358.405 78.4776L363.35 58.6941C363.757 57.0491 363.621 55.3164 362.961 53.7556C362.301 52.1947 361.153 50.8896 359.689 50.0355L309.622 21.1293C308.151 20.2887 306.446 19.9473 304.765 20.1561C303.083 20.365 301.514 21.1129 300.293 22.2879L285.639 36.4659C285.326 36.7692 285.057 37.1147 284.839 37.4924L281.714 42.9051C280.447 45.0984 279.681 47.545 279.472 50.0692C279.262 52.5934 279.614 55.1327 280.502 57.5049L266.814 81.2124C266.192 82.289 266.024 83.5685 266.346 84.7693C266.668 85.9702 267.453 86.994 268.53 87.6156L322.656 118.866C323.733 119.487 325.012 119.656 326.213 119.334C327.414 119.012 328.438 118.227 329.06 117.15L342.747 93.4424C345.245 93.0251 347.62 92.06 349.702 90.6163C351.783 89.1727 353.519 87.2864 354.785 85.0926L357.91 79.6799ZM305.966 29.844L353.987 57.5686L350.829 70.179L296.624 38.8841L305.966 29.844ZM325.813 66.5617L325.032 67.9149C323.996 69.7093 322.29 71.0186 320.288 71.5549C318.287 72.0912 316.154 71.8104 314.36 70.7744C312.566 69.7384 311.256 68.032 310.72 66.0306C310.184 64.0292 310.464 61.8968 311.5 60.1024L312.282 58.7492L325.813 66.5617ZM289.614 55.0033C289.034 53.8465 288.75 52.5638 288.788 51.2703C288.827 49.9768 289.185 48.7131 289.833 47.5926L290.614 46.2394L304.146 54.0519L303.365 55.4051C302.329 57.1995 300.622 58.5089 298.621 59.0452C296.619 59.5814 294.487 59.3007 292.692 58.2647C291.625 57.6488 290.72 56.7862 290.054 55.749C289.931 55.4869 289.784 55.2371 289.614 55.0033ZM323.284 108.403L277.277 81.8404L286.689 65.5381C287.112 65.8365 287.548 66.12 288.005 66.3837C290.033 67.5557 292.281 68.2992 294.608 68.5684C296.935 68.8375 299.293 68.6265 301.535 67.9483C302.07 70.2292 303.066 72.3763 304.463 74.2572C305.859 76.138 307.627 77.7127 309.655 78.8841C311.684 80.0554 313.931 80.7985 316.259 81.0675C318.586 81.3366 320.943 81.1259 323.186 80.4483C323.72 82.7294 324.716 84.8767 326.113 86.7576C327.509 88.6385 329.277 90.213 331.306 91.3837C331.763 91.6473 332.227 91.8834 332.696 92.1006L323.284 108.403ZM346.666 80.4051C346.019 81.526 345.104 82.4687 344.003 83.1486C342.902 83.8284 341.649 84.2241 340.357 84.3001C340.075 84.2742 339.791 84.2747 339.509 84.3017C338.172 84.2347 336.875 83.8254 335.742 83.1133C334.609 82.4011 333.678 81.4098 333.038 80.2345C332.398 79.0591 332.071 77.7391 332.088 76.401C332.105 75.0629 332.465 73.7515 333.134 72.5926L333.915 71.2394L347.447 79.0519L346.666 80.4051Z"
                  fill="white"/>
        </g>
        <g clip-path="url(#clip3_8_2)">
            <path d="M563.653 69.0079L554.181 63.5391L559.649 54.067C560.685 52.2726 560.966 50.1401 560.43 48.1387C559.894 46.1373 558.584 44.4309 556.79 43.3949L513.488 18.3949C511.694 17.3589 509.562 17.0782 507.56 17.6144C505.559 18.1507 503.852 19.4601 502.816 21.2545L477.816 64.5557C477.374 65.3221 477.158 66.1978 477.193 67.0818C477.228 67.9658 477.512 68.8219 478.013 69.5511C478.514 70.2804 479.21 70.8531 480.023 71.203C480.835 71.5529 481.73 71.6657 482.604 71.5284L496.724 69.3063L492.492 76.6371C491.456 78.4315 491.175 80.5639 491.711 82.5653C492.248 84.5667 493.557 86.2731 495.351 87.3091L526.532 105.311L533.08 122.321C533.398 123.147 533.943 123.865 534.652 124.394C535.362 124.923 536.206 125.24 537.088 125.309C537.97 125.378 538.853 125.196 539.636 124.784C540.419 124.372 541.07 123.747 541.512 122.981L566.512 79.6799C567.548 77.8855 567.829 75.7531 567.293 73.7517C566.756 71.7503 565.447 70.0439 563.653 69.0079ZM490.844 60.742L510.154 27.2951L550.749 50.7326L535.124 77.7959L503.859 59.7451C502.928 59.2038 501.838 58.9999 500.773 59.1679L490.844 60.742ZM538.302 109.792L534.7 100.406C534.315 99.4052 533.599 98.5666 532.671 98.03L501.392 79.9714L506.08 71.8524L531.79 86.6962C533.584 87.7322 535.717 88.0129 537.718 87.4766C539.719 86.9404 541.426 85.631 542.462 83.8366L549.493 71.6581L557.612 76.3456L538.302 109.792Z"
                  fill="white"/>
        </g>
        <g clip-path="url(#clip4_8_2)">
            <path d="M755.374 116.997L754.021 116.215L776.677 76.9736C777.299 75.897 777.467 74.6175 777.146 73.4167C776.824 72.2158 776.038 71.192 774.962 70.5704L750.605 56.5079C749.528 55.8863 748.249 55.7178 747.048 56.0396C745.847 56.3614 744.823 57.147 744.201 58.2236L737.17 70.4021L729.051 65.7146L745.457 37.2981C746.079 36.2215 746.247 34.942 745.926 33.7412C745.604 32.5403 744.818 31.5165 743.742 30.8949L719.385 16.8324C718.308 16.2108 717.029 16.0424 715.828 16.3641C714.627 16.6859 713.603 17.4715 712.981 18.5481L680.95 74.0279L679.597 73.2466C678.52 72.625 677.241 72.4566 676.04 72.7784C674.839 73.1001 673.815 73.8857 673.194 74.9624C672.572 76.039 672.404 77.3185 672.726 78.5193C673.047 79.7202 673.833 80.744 674.91 81.3656L750.687 125.116C751.763 125.737 753.043 125.906 754.244 125.584C755.445 125.262 756.468 124.477 757.09 123.4C757.712 122.323 757.88 121.044 757.558 119.843C757.237 118.642 756.451 117.618 755.374 116.997ZM749.977 66.9706L766.215 76.3456L745.902 111.528L729.664 102.153L749.977 66.9706ZM732.483 78.5211L721.545 97.4654L713.426 92.7779L724.364 73.8336L732.483 78.5211ZM718.757 27.2951L734.995 36.6701L705.307 88.0904L689.069 78.7154L718.757 27.2951ZM726.248 42.4454L724.685 45.1517C724.064 46.2283 723.04 47.014 721.839 47.3357C720.638 47.6575 719.359 47.489 718.282 46.8674C717.205 46.2458 716.42 45.222 716.098 44.0212C715.776 42.8203 715.945 41.5408 716.566 40.4642L718.129 37.7579C718.75 36.6812 719.774 35.8956 720.975 35.5738C722.176 35.2521 723.455 35.4205 724.532 36.0421C725.609 36.6637 726.394 37.6876 726.716 38.8884C727.038 40.0892 726.869 41.3687 726.248 42.4454ZM716.873 58.6833L715.31 61.3897C714.689 62.4663 713.665 63.2519 712.464 63.5737C711.263 63.8955 709.984 63.727 708.907 63.1054C707.83 62.4838 707.045 61.46 706.723 60.2591C706.401 59.0583 706.57 57.7788 707.191 56.7022L708.754 53.9958C709.375 52.9192 710.399 52.1336 711.6 51.8118C712.801 51.4901 714.08 51.6585 715.157 52.2801C716.234 52.9017 717.019 53.9255 717.341 55.1264C717.663 56.3272 717.494 57.6067 716.873 58.6833ZM707.498 74.9213L705.935 77.6277C705.314 78.7043 704.29 79.4899 703.089 79.8117C701.888 80.1334 700.609 79.965 699.532 79.3434C698.455 78.7218 697.67 77.698 697.348 76.4971C697.026 75.2963 697.195 74.0168 697.816 72.9402L699.379 70.2338C700 69.1572 701.024 68.3716 702.225 68.0498C703.426 67.728 704.705 67.8965 705.782 68.5181C706.859 69.1397 707.644 70.1635 707.966 71.3644C708.288 72.5652 708.119 73.8447 707.498 74.9213ZM738.411 96.3777L739.974 93.6713C740.595 92.5947 741.619 91.8091 742.82 91.4873C744.021 91.1655 745.3 91.334 746.377 91.9556C747.454 92.5772 748.239 93.601 748.561 94.8019C748.883 96.0027 748.714 97.2822 748.093 98.3588L746.53 101.065C745.909 102.142 744.885 102.927 743.684 103.249C742.483 103.571 741.204 103.402 740.127 102.781C739.05 102.159 738.265 101.135 737.943 99.9346C737.621 98.7338 737.79 97.4543 738.411 96.3777ZM747.786 80.1397L749.349 77.4333C749.97 76.3567 750.994 75.5711 752.195 75.2493C753.396 74.9276 754.675 75.096 755.752 75.7176C756.829 76.3392 757.614 77.363 757.936 78.5639C758.258 79.7647 758.089 81.0442 757.468 82.1208L755.905 84.8272C755.284 85.9038 754.26 86.6894 753.059 87.0112C751.858 87.333 750.579 87.1645 749.502 86.5429C748.425 85.9213 747.64 84.8975 747.318 83.6966C746.996 82.4958 747.165 81.2163 747.786 80.1397Z"
                  fill="white"/>
        </g>
        <g clip-path="url(#clip5_8_2)">
            <path d="M934.989 35.5567C935.223 34.5747 935.134 33.5433 934.734 32.6162C934.335 31.689 933.647 30.9155 932.773 30.4107C931.899 29.9059 930.885 29.6969 929.882 29.8147C928.88 29.9325 927.942 30.3709 927.208 31.0645L891.592 64.6282C891.06 65.1297 890.652 65.7488 890.402 66.436C890.152 67.1232 890.066 67.8594 890.151 68.5858C890.236 69.3122 890.49 70.0086 890.892 70.6193C891.295 71.23 891.835 71.738 892.468 72.1028L916.825 86.1653C917.458 86.5305 918.168 86.7427 918.897 86.7849C919.627 86.8271 920.356 86.6982 921.027 86.4084C921.698 86.1186 922.291 85.6761 922.761 85.116C923.23 84.556 923.562 83.894 923.73 83.1829L934.989 35.5567ZM902.613 67.1342L922.272 48.6067L916.056 74.896L902.613 67.1342ZM979.895 67.5501C981.981 63.9371 982.949 59.7866 982.676 55.6236C982.403 51.4606 980.902 47.472 978.362 44.1621C975.823 40.8523 972.358 38.3699 968.408 37.0289C964.457 35.6879 960.198 35.5484 956.168 36.6282C952.138 37.708 948.519 39.9585 945.768 43.0951C943.018 46.2318 941.259 50.1136 940.714 54.2499C940.17 58.3862 940.864 62.591 942.709 66.3327C944.554 70.0744 947.468 73.1849 951.081 75.2709C955.927 78.0618 961.683 78.8163 967.085 77.3688C972.486 75.9214 977.094 72.3902 979.895 67.5501ZM951.479 51.1438C952.638 49.1366 954.366 47.5181 956.445 46.493C958.523 45.4678 960.859 45.0822 963.157 45.3847C965.455 45.6872 967.612 46.6644 969.354 48.1926C971.097 49.7208 972.347 51.7314 972.947 53.9702C973.547 56.2089 973.469 58.5753 972.724 60.7701C971.979 62.9648 970.6 64.8893 968.761 66.3003C966.923 67.7113 964.707 68.5453 962.394 68.6969C960.081 68.8484 957.775 68.3108 955.768 67.1519C953.077 65.5979 951.113 63.0383 950.308 60.0362C949.504 57.0341 949.925 53.8354 951.479 51.1438ZM970.283 93.5742L940.513 76.3867C939.437 75.7651 938.157 75.5967 936.956 75.9184C935.755 76.2402 934.732 77.0258 934.11 78.1024L923.954 95.6936C923.332 96.7702 923.164 98.0497 923.486 99.2505C923.807 100.451 924.593 101.475 925.67 102.097L955.439 119.284C956.516 119.906 957.795 120.074 958.996 119.753C960.197 119.431 961.221 118.645 961.842 117.569L971.999 99.9774C972.62 98.9008 972.789 97.6213 972.467 96.4205C972.145 95.2196 971.36 94.1958 970.283 93.5742ZM956.067 108.822L934.417 96.3216L939.885 86.8494L961.536 99.3494L956.067 108.822Z"
                  fill="white"/>
        </g>
        <g clip-path="url(#clip6_8_2)">
            <path d="M147.087 218.503C147.307 218.127 147.474 217.723 147.582 217.301L152.527 197.517C152.934 195.872 152.798 194.139 152.138 192.579C151.478 191.018 150.33 189.713 148.866 188.859L98.799 159.952C97.3275 159.112 95.6233 158.77 93.9416 158.979C92.2598 159.188 90.691 159.936 89.4698 161.111L74.816 175.289C74.5028 175.592 74.2335 175.938 74.0158 176.316L70.8908 181.728C69.624 183.922 68.8584 186.368 68.6487 188.892C68.4391 191.416 68.7908 193.956 69.6785 196.328L55.991 220.035C55.3694 221.112 55.2009 222.392 55.5227 223.592C55.8445 224.793 56.6301 225.817 57.7067 226.439L111.833 257.689C112.91 258.31 114.189 258.479 115.39 258.157C116.591 257.835 117.615 257.05 118.237 255.973L131.924 232.266C134.422 231.848 136.797 230.883 138.878 229.439C140.96 227.996 142.696 226.109 143.962 223.916L147.087 218.503ZM95.1433 168.667L143.164 196.392L140.006 209.002L85.8013 177.707L95.1433 168.667ZM114.99 205.385L114.209 206.738C113.173 208.532 111.467 209.842 109.465 210.378C107.464 210.914 105.331 210.634 103.537 209.598C101.743 208.562 100.433 206.855 99.8969 204.854C99.3606 202.852 99.6414 200.72 100.677 198.925L101.459 197.572L114.99 205.385ZM78.7908 193.826C78.2107 192.67 77.927 191.387 77.9652 190.093C78.0035 188.8 78.3624 187.536 79.0098 186.416L79.7911 185.063L93.3227 192.875L92.5415 194.228C91.5055 196.023 89.7991 197.332 87.7977 197.868C85.7963 198.404 83.6638 198.124 81.8694 197.088C80.8016 196.472 79.8968 195.609 79.2308 194.572C79.1084 194.31 78.961 194.06 78.7908 193.826ZM112.461 247.226L66.4537 220.663L75.8658 204.361C76.2889 204.66 76.7252 204.943 77.1819 205.207C79.2104 206.379 81.4577 207.122 83.7849 207.391C86.1121 207.661 88.4698 207.45 90.7123 206.771C91.2468 209.052 92.2431 211.199 93.6397 213.08C95.0363 214.961 96.8035 216.536 98.8323 217.707C100.861 218.878 103.108 219.622 105.436 219.891C107.763 220.16 110.12 219.949 112.363 219.271C112.897 221.552 113.893 223.7 115.29 225.581C116.686 227.462 118.454 229.036 120.483 230.207C120.94 230.47 121.403 230.706 121.873 230.924L112.461 247.226ZM135.843 219.228C135.196 220.349 134.281 221.292 133.18 221.972C132.079 222.651 130.826 223.047 129.534 223.123C129.252 223.097 128.968 223.098 128.686 223.125C127.349 223.058 126.052 222.649 124.919 221.936C123.786 221.224 122.855 220.233 122.215 219.058C121.575 217.882 121.248 216.562 121.265 215.224C121.282 213.886 121.642 212.575 122.311 211.416L123.092 210.062L136.624 217.875L135.843 219.228Z"
                  fill="white"/>
        </g>
        <g clip-path="url(#clip7_8_2)">
            <path d="M335.949 255.82L334.596 255.038L357.252 215.797C357.873 214.72 358.042 213.441 357.72 212.24C357.398 211.039 356.613 210.015 355.536 209.393L331.179 195.331C330.102 194.709 328.823 194.541 327.622 194.863C326.421 195.184 325.397 195.97 324.776 197.047L317.745 209.225L309.626 204.538L326.032 176.121C326.653 175.045 326.822 173.765 326.5 172.564C326.178 171.363 325.393 170.34 324.316 169.718L299.959 155.655C298.882 155.034 297.603 154.865 296.402 155.187C295.201 155.509 294.177 156.295 293.556 157.371L261.525 212.851L260.171 212.07C259.095 211.448 257.815 211.28 256.614 211.601C255.414 211.923 254.39 212.709 253.768 213.785C253.147 214.862 252.978 216.142 253.3 217.342C253.622 218.543 254.407 219.567 255.484 220.189L331.261 263.939C332.338 264.56 333.617 264.729 334.818 264.407C336.019 264.085 337.043 263.3 337.664 262.223C338.286 261.146 338.454 259.867 338.133 258.666C337.811 257.465 337.025 256.441 335.949 255.82ZM330.551 205.794L346.789 215.169L326.477 250.351L310.239 240.976L330.551 205.794ZM313.057 217.344L302.12 236.288L294.001 231.601L304.938 212.657L313.057 217.344ZM299.331 166.118L315.569 175.493L285.882 226.913L269.644 217.538L299.331 166.118ZM306.822 181.268L305.26 183.975C304.638 185.051 303.614 185.837 302.413 186.159C301.212 186.481 299.933 186.312 298.856 185.691C297.78 185.069 296.994 184.045 296.672 182.844C296.351 181.643 296.519 180.364 297.141 179.287L298.703 176.581C299.325 175.504 300.349 174.719 301.549 174.397C302.75 174.075 304.03 174.244 305.106 174.865C306.183 175.487 306.969 176.511 307.29 177.711C307.612 178.912 307.444 180.192 306.822 181.268ZM297.447 197.506L295.885 200.213C295.263 201.289 294.239 202.075 293.038 202.397C291.837 202.719 290.558 202.55 289.481 201.928C288.405 201.307 287.619 200.283 287.297 199.082C286.976 197.881 287.144 196.602 287.766 195.525L289.328 192.819C289.95 191.742 290.974 190.957 292.174 190.635C293.375 190.313 294.655 190.482 295.731 191.103C296.808 191.725 297.594 192.749 297.915 193.949C298.237 195.15 298.069 196.43 297.447 197.506ZM288.072 213.744L286.51 216.451C285.888 217.527 284.864 218.313 283.663 218.635C282.462 218.957 281.183 218.788 280.106 218.166C279.03 217.545 278.244 216.521 277.922 215.32C277.601 214.119 277.769 212.84 278.391 211.763L279.953 209.057C280.575 207.98 281.599 207.195 282.799 206.873C284 206.551 285.28 206.72 286.356 207.341C287.433 207.963 288.219 208.987 288.54 210.187C288.862 211.388 288.694 212.668 288.072 213.744ZM318.986 235.201L320.548 232.494C321.17 231.418 322.193 230.632 323.394 230.31C324.595 229.989 325.875 230.157 326.951 230.779C328.028 231.4 328.814 232.424 329.135 233.625C329.457 234.826 329.289 236.105 328.667 237.182L327.105 239.888C326.483 240.965 325.459 241.75 324.258 242.072C323.057 242.394 321.778 242.226 320.701 241.604C319.625 240.982 318.839 239.959 318.517 238.758C318.195 237.557 318.364 236.277 318.986 235.201ZM328.361 218.963L329.923 216.256C330.545 215.18 331.568 214.394 332.769 214.072C333.97 213.751 335.25 213.919 336.326 214.541C337.403 215.162 338.189 216.186 338.51 217.387C338.832 218.588 338.664 219.867 338.042 220.944L336.48 223.65C335.858 224.727 334.834 225.512 333.633 225.834C332.432 226.156 331.153 225.988 330.076 225.366C329 224.744 328.214 223.721 327.892 222.52C327.57 221.319 327.739 220.039 328.361 218.963Z"
                  fill="white"/>
        </g>
        <g clip-path="url(#clip8_8_2)">
            <path d="M515.563 174.38C515.797 173.398 515.708 172.366 515.309 171.439C514.909 170.512 514.222 169.739 513.347 169.234C512.473 168.729 511.459 168.52 510.457 168.638C509.454 168.756 508.516 169.194 507.783 169.888L472.167 203.451C471.634 203.953 471.227 204.572 470.976 205.259C470.726 205.946 470.64 206.682 470.725 207.409C470.81 208.135 471.064 208.832 471.467 209.442C471.869 210.053 472.409 210.561 473.043 210.926L497.4 224.988C498.033 225.354 498.742 225.566 499.472 225.608C500.201 225.65 500.93 225.521 501.601 225.231C502.272 224.942 502.866 224.499 503.335 223.939C503.804 223.379 504.136 222.717 504.304 222.006L515.563 174.38ZM483.187 205.957L502.846 187.43L496.631 213.719L483.187 205.957ZM560.47 206.373C562.556 202.76 563.523 198.61 563.251 194.447C562.978 190.284 561.476 186.295 558.937 182.985C556.397 179.675 552.933 177.193 548.982 175.852C545.032 174.511 540.772 174.371 536.742 175.451C532.713 176.531 529.094 178.782 526.343 181.918C523.592 185.055 521.833 188.937 521.289 193.073C520.744 197.209 521.438 201.414 523.284 205.156C525.129 208.897 528.042 212.008 531.655 214.094C536.501 216.885 542.257 217.639 547.659 216.192C553.061 214.744 557.668 211.213 560.47 206.373ZM532.053 189.967C533.212 187.96 534.94 186.341 537.019 185.316C539.098 184.291 541.434 183.905 543.732 184.208C546.029 184.51 548.186 185.487 549.929 187.016C551.671 188.544 552.922 190.554 553.521 192.793C554.121 195.032 554.044 197.398 553.299 199.593C552.554 201.788 551.175 203.712 549.336 205.123C547.497 206.534 545.281 207.368 542.968 207.52C540.656 207.671 538.35 207.134 536.343 205.975C533.651 204.421 531.687 201.861 530.883 198.859C530.078 195.857 530.499 192.658 532.053 189.967ZM550.857 232.397L521.088 215.21C520.011 214.588 518.732 214.42 517.531 214.741C516.33 215.063 515.306 215.849 514.684 216.926L504.528 234.517C503.907 235.593 503.738 236.873 504.06 238.074C504.382 239.274 505.167 240.298 506.244 240.92L536.014 258.107C537.09 258.729 538.37 258.897 539.571 258.576C540.771 258.254 541.795 257.468 542.417 256.392L552.573 238.801C553.195 237.724 553.363 236.444 553.041 235.244C552.72 234.043 551.934 233.019 550.857 232.397ZM536.642 247.645L514.991 235.145L520.46 225.672L542.11 238.172L536.642 247.645Z"
                  fill="white"/>
        </g>
        <g clip-path="url(#clip9_8_2)">
            <path d="M780.012 232.143C782.154 227.725 781.808 220.094 768.705 208.596C768.778 201.76 766.979 195.034 763.503 189.147C760.028 183.259 755.008 178.435 748.987 175.196C742.966 171.956 736.174 170.426 729.346 170.769C722.518 171.113 715.914 173.318 710.249 177.146C709.472 177.67 708.72 178.218 707.994 178.79C690.797 175.452 684.587 179.896 682.433 184.336C680.405 188.512 681.583 193.324 684.943 198.305C687.081 201.476 690.106 204.717 693.73 207.903C693.663 214.738 695.466 221.46 698.944 227.344C702.422 233.227 707.442 238.047 713.462 241.283C719.483 244.519 726.273 246.047 733.099 245.701C739.925 245.356 746.526 243.15 752.189 239.324C752.969 238.797 753.72 238.248 754.449 237.672C762.231 239.165 768.796 239.237 773.3 237.678C777.29 236.316 779.163 233.908 780.012 232.143ZM754.536 192.507C758.091 197.793 759.749 204.128 759.24 210.478C758.731 216.828 756.084 222.818 751.733 227.47C744.51 225.656 735.872 222.53 726.533 217.954C717.739 213.642 709.779 208.735 703.474 203.781C704.372 198.217 706.921 193.052 710.791 188.954C714.661 184.856 719.672 182.016 725.175 180.801C730.679 179.586 736.421 180.052 741.656 182.139C746.891 184.227 751.378 187.839 754.536 192.507ZM690.864 188.426C691.077 187.995 693.489 186.575 700.226 187.139C698.239 190.066 696.678 193.259 695.588 196.624C690.979 191.614 690.646 188.884 690.864 188.426ZM707.902 223.962C706.227 221.48 704.962 218.744 704.153 215.861C709.989 219.775 716.086 223.285 722.402 226.367C728.659 229.46 735.122 232.117 741.746 234.319C735.771 236.721 729.153 237.003 722.995 235.119C716.837 233.234 711.51 229.297 707.902 223.962ZM770.246 228.826C768.418 229.456 765.675 229.643 762.212 229.35C764.202 226.421 765.766 223.224 766.857 219.855C771.082 224.464 771.918 227.359 771.578 228.05C771.522 228.168 771.153 228.516 770.246 228.826Z"
                  fill="white"/>
        </g>
        <g clip-path="url(#clip10_8_2)">
            <path d="M980.858 207.831L971.386 202.362L976.854 192.89C977.89 191.096 978.171 188.963 977.635 186.962C977.099 184.96 975.789 183.254 973.995 182.218L930.694 157.218C928.899 156.182 926.767 155.901 924.765 156.437C922.764 156.974 921.057 158.283 920.021 160.078L895.021 203.379C894.579 204.145 894.363 205.021 894.398 205.905C894.433 206.789 894.717 207.645 895.218 208.374C895.719 209.103 896.416 209.676 897.228 210.026C898.041 210.376 898.935 210.489 899.809 210.351L913.929 208.129L909.697 215.46C908.661 217.255 908.38 219.387 908.916 221.388C909.453 223.39 910.762 225.096 912.557 226.132L943.737 244.134L950.285 261.144C950.603 261.97 951.148 262.688 951.857 263.217C952.567 263.746 953.411 264.063 954.293 264.132C955.175 264.201 956.059 264.019 956.841 263.607C957.624 263.195 958.275 262.57 958.717 261.804L983.717 218.503C984.753 216.709 985.034 214.576 984.498 212.575C983.962 210.573 982.652 208.867 980.858 207.831ZM908.049 199.565L927.359 166.118L967.954 189.556L952.329 216.619L921.064 198.568C920.133 198.027 919.043 197.823 917.979 197.991L908.049 199.565ZM955.507 248.616L951.905 239.229C951.52 238.228 950.804 237.39 949.876 236.853L918.597 218.794L923.285 210.675L948.995 225.519C950.789 226.555 952.922 226.836 954.923 226.3C956.925 225.763 958.631 224.454 959.667 222.66L966.698 210.481L974.817 215.169L955.507 248.616Z"
                  fill="white"/>
        </g>
        <g clip-path="url(#clip11_8_2)">
            <path d="M154.205 370.966C156.346 366.548 156.001 358.917 142.897 347.419C142.97 340.583 141.171 333.857 137.695 327.97C134.22 322.082 129.2 317.258 123.179 314.019C117.159 310.779 110.367 309.249 103.539 309.592C96.7106 309.936 90.1066 312.141 84.4418 315.969C83.6645 316.493 82.9127 317.041 82.1863 317.613C64.9896 314.276 58.7797 318.719 56.625 323.159C54.5977 327.335 55.7754 332.148 59.135 337.128C61.2734 340.299 64.2985 343.54 67.9225 346.726C67.8551 353.561 69.658 360.283 73.136 366.167C76.614 372.05 81.6346 376.87 87.6548 380.106C93.6749 383.342 100.465 384.87 107.291 384.524C114.117 384.179 120.718 381.973 126.381 378.147C127.162 377.62 127.913 377.071 128.641 376.495C136.424 377.988 142.988 378.06 147.492 376.502C151.483 375.139 153.355 372.731 154.205 370.966ZM128.728 331.33C132.283 336.616 133.942 342.951 133.432 349.301C132.923 355.651 130.277 361.641 125.925 366.293C118.703 364.479 110.064 361.353 100.725 356.777C91.9316 352.465 83.9713 347.558 77.6661 342.604C78.5644 337.04 81.1137 331.875 84.9833 327.777C88.8529 323.679 93.8644 320.839 99.3678 319.624C104.871 318.409 110.613 318.875 115.848 320.962C121.083 323.05 125.571 326.662 128.728 331.33ZM65.0566 327.249C65.2698 326.818 67.6814 325.398 74.4179 325.962C72.4314 328.889 70.87 332.082 69.7802 335.447C65.1713 330.437 64.838 327.707 65.0566 327.249ZM82.0948 362.785C80.4198 360.303 79.154 357.567 78.3457 354.684C84.1816 358.598 90.2787 362.108 96.5942 365.19C102.851 368.283 109.315 370.94 115.938 373.142C109.963 375.544 103.345 375.826 97.187 373.942C91.0289 372.057 85.7024 368.12 82.0948 362.785ZM144.438 367.649C142.61 368.279 139.867 368.466 136.404 368.173C138.394 365.244 139.958 362.047 141.049 358.678C145.275 363.287 146.11 366.182 145.771 366.873C145.714 366.991 145.345 367.339 144.438 367.649Z"
                  fill="white"/>
        </g>
        <g clip-path="url(#clip12_8_2)">
            <path d="M355.05 346.654L345.578 341.185L351.047 331.713C352.083 329.919 352.364 327.786 351.827 325.785C351.291 323.783 349.982 322.077 348.187 321.041L304.886 296.041C303.092 295.005 300.959 294.724 298.958 295.261C296.956 295.797 295.25 297.106 294.214 298.901L269.214 342.202C268.772 342.968 268.556 343.844 268.591 344.728C268.625 345.612 268.909 346.468 269.41 347.197C269.911 347.927 270.608 348.499 271.42 348.849C272.233 349.199 273.128 349.312 274.002 349.175L288.122 346.952L283.889 354.283C282.853 356.078 282.573 358.21 283.109 360.211C283.645 362.213 284.955 363.919 286.749 364.955L317.929 382.957L324.477 399.967C324.795 400.793 325.341 401.511 326.05 402.04C326.759 402.569 327.604 402.886 328.485 402.955C329.367 403.024 330.251 402.842 331.034 402.43C331.817 402.018 332.467 401.393 332.91 400.627L357.91 357.326C358.946 355.532 359.227 353.399 358.69 351.398C358.154 349.396 356.845 347.69 355.05 346.654ZM282.241 338.388L301.552 304.941L342.147 328.379L326.522 355.442L295.257 337.391C294.325 336.85 293.235 336.646 292.171 336.814L282.241 338.388ZM329.699 387.439L326.097 378.052C325.712 377.051 324.996 376.213 324.068 375.676L292.79 357.618L297.477 349.499L323.187 364.342C324.982 365.378 327.114 365.659 329.115 365.123C331.117 364.586 332.823 363.277 333.859 361.483L340.891 349.304L349.01 353.992L329.699 387.439Z"
                  fill="white"/>
        </g>
        <g clip-path="url(#clip13_8_2)">
            <path d="M566.512 357.326C566.733 356.95 566.899 356.546 567.008 356.124L571.953 336.34C572.36 334.695 572.223 332.963 571.563 331.402C570.903 329.841 569.755 328.536 568.292 327.682L518.225 298.775C516.753 297.935 515.049 297.593 513.367 297.802C511.685 298.011 510.117 298.759 508.895 299.934L494.242 314.112C493.928 314.415 493.659 314.761 493.441 315.139L490.316 320.551C489.05 322.745 488.284 325.191 488.074 327.715C487.865 330.24 488.216 332.779 489.104 335.151L475.417 358.859C474.795 359.935 474.627 361.215 474.948 362.415C475.27 363.616 476.056 364.64 477.132 365.262L531.259 396.512C532.336 397.133 533.615 397.302 534.816 396.98C536.017 396.658 537.041 395.873 537.662 394.796L551.35 371.089C553.848 370.671 556.223 369.706 558.304 368.262C560.385 366.819 562.121 364.932 563.387 362.739L566.512 357.326ZM514.569 307.49L562.589 335.215L559.431 347.825L505.227 316.53L514.569 307.49ZM534.416 344.208L533.635 345.561C532.599 347.355 530.892 348.665 528.891 349.201C526.889 349.737 524.757 349.457 522.963 348.421C521.168 347.385 519.859 345.678 519.322 343.677C518.786 341.675 519.067 339.543 520.103 337.748L520.884 336.395L534.416 344.208ZM498.216 332.649C497.636 331.493 497.353 330.21 497.391 328.916C497.429 327.623 497.788 326.359 498.435 325.239L499.217 323.886L512.748 331.698L511.967 333.051C510.931 334.846 509.225 336.155 507.223 336.691C505.222 337.228 503.089 336.947 501.295 335.911C500.227 335.295 499.322 334.432 498.656 333.395C498.534 333.133 498.387 332.883 498.216 332.649ZM531.887 386.049L485.879 359.487L495.291 343.184C495.715 343.483 496.151 343.766 496.607 344.03C498.636 345.202 500.883 345.945 503.21 346.214C505.538 346.484 507.895 346.273 510.138 345.594C510.672 347.875 511.669 350.022 513.065 351.903C514.462 353.784 516.229 355.359 518.258 356.53C520.287 357.702 522.534 358.445 524.861 358.714C527.188 358.983 529.546 358.772 531.788 358.094C532.322 360.376 533.319 362.523 534.715 364.404C536.112 366.285 537.879 367.859 539.909 369.03C540.365 369.293 540.829 369.53 541.299 369.747L531.887 386.049ZM555.268 358.051C554.622 359.172 553.707 360.115 552.606 360.795C551.505 361.475 550.252 361.87 548.96 361.946C548.678 361.92 548.393 361.921 548.111 361.948C546.775 361.881 545.478 361.472 544.345 360.759C543.212 360.047 542.281 359.056 541.641 357.881C541.001 356.705 540.674 355.385 540.691 354.047C540.707 352.709 541.068 351.398 541.737 350.239L542.518 348.886L556.05 356.698L555.268 358.051Z"
                  fill="white"/>
        </g>
        <g clip-path="url(#clip14_8_2)">
            <path d="M726.386 313.203C726.62 312.221 726.531 311.189 726.132 310.262C725.733 309.335 725.045 308.562 724.17 308.057C723.296 307.552 722.282 307.343 721.28 307.461C720.277 307.579 719.339 308.017 718.606 308.711L682.99 342.274C682.457 342.776 682.05 343.395 681.8 344.082C681.549 344.769 681.463 345.506 681.548 346.232C681.634 346.958 681.887 347.655 682.29 348.265C682.692 348.876 683.232 349.384 683.866 349.749L708.223 363.811C708.856 364.177 709.565 364.389 710.295 364.431C711.024 364.473 711.753 364.344 712.424 364.054C713.095 363.765 713.689 363.322 714.158 362.762C714.627 362.202 714.959 361.54 715.127 360.829L726.386 313.203ZM694.01 344.78L713.669 326.253L707.454 352.542L694.01 344.78ZM771.293 345.196C773.379 341.583 774.346 337.433 774.074 333.27C773.801 329.107 772.3 325.118 769.76 321.808C767.22 318.498 763.756 316.016 759.805 314.675C755.855 313.334 751.595 313.194 747.566 314.274C743.536 315.354 739.917 317.605 737.166 320.741C734.415 323.878 732.656 327.76 732.112 331.896C731.567 336.032 732.261 340.237 734.107 343.979C735.952 347.721 738.865 350.831 742.478 352.917C747.325 355.708 753.08 356.462 758.482 355.015C763.884 353.567 768.491 350.036 771.293 345.196ZM742.876 328.79C744.035 326.783 745.763 325.164 747.842 324.139C749.921 323.114 752.257 322.728 754.555 323.031C756.853 323.333 759.009 324.31 760.752 325.839C762.494 327.367 763.745 329.377 764.344 331.616C764.944 333.855 764.867 336.221 764.122 338.416C763.377 340.611 761.998 342.535 760.159 343.946C758.32 345.357 756.104 346.191 753.791 346.343C751.479 346.495 749.173 345.957 747.166 344.798C744.474 343.244 742.51 340.684 741.706 337.682C740.901 334.68 741.322 331.482 742.876 328.79ZM761.68 371.22L731.911 354.033C730.834 353.411 729.555 353.243 728.354 353.565C727.153 353.886 726.129 354.672 725.508 355.749L715.351 373.34C714.73 374.416 714.561 375.696 714.883 376.897C715.205 378.097 715.99 379.121 717.067 379.743L746.837 396.93C747.913 397.552 749.193 397.72 750.394 397.399C751.594 397.077 752.618 396.291 753.24 395.215L763.396 377.624C764.018 376.547 764.186 375.267 763.864 374.067C763.543 372.866 762.757 371.842 761.68 371.22ZM747.465 386.468L725.814 373.968L731.283 364.496L752.933 376.996L747.465 386.468Z"
                  fill="white"/>
        </g>
        <g clip-path="url(#clip15_8_2)">
            <path d="M963.977 394.643L962.624 393.862L985.28 354.62C985.901 353.543 986.07 352.264 985.748 351.063C985.426 349.862 984.641 348.838 983.564 348.216L959.207 334.154C958.131 333.532 956.851 333.364 955.65 333.686C954.449 334.007 953.426 334.793 952.804 335.87L945.773 348.048L937.654 343.361L954.06 314.944C954.682 313.868 954.85 312.588 954.528 311.387C954.206 310.186 953.421 309.163 952.344 308.541L927.987 294.479C926.911 293.857 925.631 293.688 924.43 294.01C923.229 294.332 922.206 295.118 921.584 296.194L889.553 351.674L888.2 350.893C887.123 350.271 885.843 350.103 884.643 350.424C883.442 350.746 882.418 351.532 881.796 352.609C881.175 353.685 881.006 354.965 881.328 356.165C881.65 357.366 882.435 358.39 883.512 359.012L959.289 402.762C960.366 403.383 961.645 403.552 962.846 403.23C964.047 402.908 965.071 402.123 965.693 401.046C966.314 399.969 966.483 398.69 966.161 397.489C965.839 396.288 965.053 395.264 963.977 394.643ZM958.579 344.617L974.817 353.992L954.505 389.174L938.267 379.799L958.579 344.617ZM941.085 356.167L930.148 375.112L922.029 370.424L932.966 351.48L941.085 356.167ZM927.359 304.941L943.597 314.316L913.91 365.737L897.672 356.362L927.359 304.941ZM934.85 320.091L933.288 322.798C932.666 323.874 931.642 324.66 930.441 324.982C929.241 325.304 927.961 325.135 926.884 324.514C925.808 323.892 925.022 322.868 924.7 321.667C924.379 320.466 924.547 319.187 925.169 318.11L926.731 315.404C927.353 314.327 928.377 313.542 929.577 313.22C930.778 312.898 932.058 313.067 933.134 313.688C934.211 314.31 934.997 315.334 935.318 316.535C935.64 317.735 935.472 319.015 934.85 320.091ZM925.475 336.329L923.913 339.036C923.291 340.112 922.267 340.898 921.066 341.22C919.866 341.542 918.586 341.373 917.509 340.752C916.433 340.13 915.647 339.106 915.325 337.905C915.004 336.704 915.172 335.425 915.794 334.348L917.356 331.642C917.978 330.565 919.002 329.78 920.202 329.458C921.403 329.136 922.683 329.305 923.759 329.926C924.836 330.548 925.622 331.572 925.943 332.773C926.265 333.973 926.097 335.253 925.475 336.329ZM916.1 352.567L914.538 355.274C913.916 356.35 912.892 357.136 911.691 357.458C910.491 357.78 909.211 357.611 908.134 356.99C907.058 356.368 906.272 355.344 905.95 354.143C905.629 352.942 905.797 351.663 906.419 350.586L907.981 347.88C908.603 346.803 909.627 346.018 910.827 345.696C912.028 345.374 913.308 345.543 914.384 346.164C915.461 346.786 916.247 347.81 916.568 349.01C916.89 350.211 916.722 351.491 916.1 352.567ZM947.014 374.024L948.576 371.317C949.198 370.241 950.222 369.455 951.422 369.133C952.623 368.812 953.903 368.98 954.979 369.602C956.056 370.223 956.842 371.247 957.163 372.448C957.485 373.649 957.317 374.928 956.695 376.005L955.133 378.711C954.511 379.788 953.487 380.574 952.286 380.895C951.086 381.217 949.806 381.049 948.729 380.427C947.653 379.805 946.867 378.782 946.545 377.581C946.224 376.38 946.392 375.1 947.014 374.024ZM956.389 357.786L957.951 355.079C958.573 354.003 959.597 353.217 960.797 352.895C961.998 352.574 963.278 352.742 964.354 353.364C965.431 353.985 966.217 355.009 966.538 356.21C966.86 357.411 966.692 358.69 966.07 359.767L964.508 362.473C963.886 363.55 962.862 364.336 961.661 364.657C960.461 364.979 959.181 364.811 958.104 364.189C957.028 363.567 956.242 362.544 955.92 361.343C955.599 360.142 955.767 358.862 956.389 357.786Z"
                  fill="white"/>
        </g>
    </g>
    <defs>
        <clipPath id="clip0_8_2">
            <rect width="1045.23" height="416.469" fill="white"/>
        </clipPath>
        <clipPath id="clip1_8_2">
            <rect width="100" height="100" fill="white" transform="translate(118.904) rotate(56)"/>
        </clipPath>
        <clipPath id="clip2_8_2">
            <rect width="100" height="100" fill="white" transform="translate(296.823 1.11026) rotate(30)"/>
        </clipPath>
        <clipPath id="clip3_8_2">
            <rect width="100" height="100" fill="white" transform="translate(505.426 1.11026) rotate(30)"/>
        </clipPath>
        <clipPath id="clip4_8_2">
            <rect width="100" height="100" fill="white" transform="translate(714.028 1.11026) rotate(30)"/>
        </clipPath>
        <clipPath id="clip5_8_2">
            <rect width="100" height="100" fill="white" transform="translate(922.631 1.11026) rotate(30)"/>
        </clipPath>
        <clipPath id="clip6_8_2">
            <rect width="100" height="100" fill="white" transform="translate(86 139.933) rotate(30)"/>
        </clipPath>
        <clipPath id="clip7_8_2">
            <rect width="100" height="100" fill="white" transform="translate(294.603 139.933) rotate(30)"/>
        </clipPath>
        <clipPath id="clip8_8_2">
            <rect width="100" height="100" fill="white" transform="translate(503.205 139.933) rotate(30)"/>
        </clipPath>
        <clipPath id="clip9_8_2">
            <rect width="100" height="100" fill="white" transform="translate(744.711 138.823) rotate(56)"/>
        </clipPath>
        <clipPath id="clip10_8_2">
            <rect width="100" height="100" fill="white" transform="translate(922.631 139.933) rotate(30)"/>
        </clipPath>
        <clipPath id="clip11_8_2">
            <rect width="100" height="100" fill="white" transform="translate(118.904 277.646) rotate(56)"/>
        </clipPath>
        <clipPath id="clip12_8_2">
            <rect width="100" height="100" fill="white" transform="translate(296.823 278.756) rotate(30)"/>
        </clipPath>
        <clipPath id="clip13_8_2">
            <rect width="100" height="100" fill="white" transform="translate(505.426 278.756) rotate(30)"/>
        </clipPath>
        <clipPath id="clip14_8_2">
            <rect width="100" height="100" fill="white" transform="translate(714.028 278.756) rotate(30)"/>
        </clipPath>
        <clipPath id="clip15_8_2">
            <rect width="100" height="100" fill="white" transform="translate(922.631 278.756) rotate(30)"/>
        </clipPath>
    </defs>
</svg>
